<svg xmlns="http://www.w3.org/2000/svg" viewBox="0 0 1813 1006"><defs><style>.cls-1{fill:#33f;}</style></defs><title>blue-wave</title><g id="Layer_2" data-name="Layer 2"><path class="cls-1" d="M1812.5.5V1006l-664.83-.5a154.09,154.09,0,0,1,1.42-23.31c7.26-52.47,42.19-100.31,90-123.21,54.36-26.05,124.27-22.56,166.27-65.8,29.25-30.11,36.41-77.13,25.45-117.65s-37.67-75.19-68.42-103.77q-3.42-3.18-6.91-6.26c-91.87-81.13-223-115.93-343-90.46-78.55,16.68-150,56.8-223.19,90.46C742.54,587,695.05,605.84,644.5,614.29c-98.36,16.43-198.22-8.12-296.8-23.25S141.83,571.82,56.58,623.56A242.25,242.25,0,0,0-.5,672V.5Z"/></g></svg>