<svg xmlns="http://www.w3.org/2000/svg" viewBox="0 0 2204 1995"><defs><style>.cls-1{fill:#33f;}</style></defs><title>blue-wave-background</title><g id="Layer_2" data-name="Layer 2"><path class="cls-1" d="M2451,0V1005H2298v988.42c-67.63-8.81-137.44-12.1-193.35-41.07-130.9-67.84-98.48-218.91-154.58-331.36-52.67-105.57-185.24-175-317-227.42s-273.92-96.87-376.34-178.74c-69.88-55.86-115.1-136.28-109.2-210.83h.26a153.15,153.15,0,0,1,1.43-22.74c7.26-52.47,42.18-100.31,89.94-123.21,54.36-26,124.28-22.56,166.28-65.8,29.25-30.11,36.4-77.13,25.44-117.65s-37.66-75.19-68.41-103.77q-3.42-3.18-6.92-6.26C1292.45,508.85,1210.83,475,1127,467.49a385.87,385.87,0,0,0-114.46,6.62c-78.55,16.68-150,56.8-223.19,90.46-46.73,21.48-94.22,40.34-144.77,48.79-98.36,16.43-198.22-8.12-296.8-23.25S142,570.89,56.7,622.63A242.1,242.1,0,0,0-.39,671V-.43h1813V0Z"/></g></svg>