<svg xmlns="http://www.w3.org/2000/svg" viewBox="0 0 1127 704"><defs><style>.cls-1{fill:#33f;}</style></defs><title>bluewave</title><g id="Layer_2" data-name="Layer 2"><path class="cls-1" d="M1127.42,467.92A385.87,385.87,0,0,0,1013,474.54c-78.55,16.68-150,56.8-223.19,90.46C743,586.48,695.55,605.34,645,613.79c-98.36,16.43-198.22-8.12-296.8-23.25S142.33,571.32,57.08,623.06A242.25,242.25,0,0,0,0,671.46V0H1090c-.63,43.45-10.57,86.62-30.6,125.37-17.53,33.92-41.66,64.29-57,99.24s-20.8,77.63-.58,110c30.7,49.17,110.06,60.47,123.83,116.77A64.2,64.2,0,0,1,1127.42,467.92Z"/></g></svg>