<svg xmlns="http://www.w3.org/2000/svg" viewBox="0 0 850 1006"><defs><style>.cls-1{fill:#33f;}</style></defs><title>bluewave</title><g id="Layer_2" data-name="Layer 2"><path class="cls-1" d="M845.35.27v1005.5l-664.83-.5A154.09,154.09,0,0,1,181.94,982c7.26-52.47,42.19-100.31,89.95-123.21,54.36-26,124.27-22.56,166.27-65.8,29.25-30.11,36.41-77.13,25.45-117.65s-37.67-75.19-68.42-103.77q-3.42-3.18-6.91-6.26c-63.1-55.72-144.71-89.59-228.51-97.08a64.2,64.2,0,0,0-1.87-16.53c-13.77-56.3-93.13-67.6-123.83-116.77-20.22-32.38-14.8-75.07.58-110s39.52-65.32,57.05-99.24c20-38.75,30-81.92,30.6-125.37Z"/></g></svg>