<svg xmlns="http://www.w3.org/2000/svg" viewBox="0 0 128.59 125.59"><defs><style>.cls-1{fill:#fff;}</style></defs><title>face</title><g id="Layer_2" data-name="Layer 2"><path d="M82.53,48.14a4.39,4.39,0,1,0-4.39-4.39,4.45,4.45,0,0,0,4.39,4.39Z"/><path class="cls-1" d="M55.35,6.46c-15.19.92-31.22,7.61-39,17S5.49,45.54,5.46,57.77a68.16,68.16,0,0,0,7.7,32.46,59.28,59.28,0,0,0,44.67,30.25,58.75,58.75,0,0,0,50.22-19.58,58.27,58.27,0,0,0,12-52.53,57.81,57.81,0,0,0-37.09-39c-11.9-3.88-15-2.93-27.56-2.9"/><path d="M55.35,5.12c-12.39.79-25.26,4.82-35,12.66S5.79,38.31,4.5,50.54c-1.43,13.57.88,27.87,7.29,40a60.36,60.36,0,0,0,25,24.77,58.25,58.25,0,0,0,34.49,6.42,60.83,60.83,0,0,0,32.82-14.89c18.41-16.51,24.29-44.56,14.16-67.08C108.89,18.83,87.27,4.8,64.34,5c-3,0-6,.11-9,.12a1.34,1.34,0,0,0,0,2.68c5.19,0,10.44-.41,15.61.12a55.28,55.28,0,0,1,15.75,4.29,56.75,56.75,0,0,1,25,21.12,54.53,54.53,0,0,1,8.79,32.49,56.89,56.89,0,0,1-12.17,32.63C93.72,116.69,68,124.1,45.94,116.36A58.46,58.46,0,0,1,19,96.81C11.17,86.53,7.34,73.71,6.86,60.88c-.47-12.34,2-25.42,9.62-35.42,7-9.17,18.83-14.14,29.84-16.44a63.83,63.83,0,0,1,9-1.22c1.71-.11,1.73-2.79,0-2.68Z"/><path d="M63,61.68a2.44,2.44,0,1,0-2.44-2.44A2.49,2.49,0,0,0,63,61.68Z"/><path d="M82.63,39.41c-1.79.86-4,1.75-4.63,3.84-.68,2.31,1.1,4.84,3,5.9a5.69,5.69,0,0,0,6.6-.73,5.39,5.39,0,0,0-5-9.31,1.46,1.46,0,0,0,.78,2.82A3.39,3.39,0,0,1,84,41.8c-.39.06.18,0,.28,0l.22,0c-.35,0-.1,0,0,0l.6.18c-.31-.1-.07,0,0,0l.25.13c.09.05.55.38.27.16.13.11.26.22.38.34l.19.21c.2.22-.11-.21,0,.07s.19.32.28.49,0,.22,0,0c0,.09.06.18.08.27a2.29,2.29,0,0,1,.07.28c.06.26,0,0,0,0,0,.24,0,.47,0,.71,0-.36-.05.15-.08.25s-.22.56-.08.27a3.74,3.74,0,0,1-.28.52,2.2,2.2,0,0,1-.17.25c-.06.09-.05.07,0-.06l-.16.18a3.5,3.5,0,0,1-.39.38c-.07,0-.28.19,0,0l-.2.13a5.29,5.29,0,0,1-.52.29c.26-.13.08,0,0,0s-.26.09-.4.12-.35.06,0,0l-.25,0c-.2,0-.4,0-.61,0,.33,0,.06,0,0,0l-.29-.07L83,46.82c-.12,0-.34-.14-.11,0-.18-.09-.36-.18-.54-.29l-.25-.16c-.2-.12.24.21,0,0a5.77,5.77,0,0,1-.44-.42l-.17-.18c-.21-.25.09.16-.06-.1s-.22-.34-.32-.52l-.1-.22c.14.32,0-.06,0-.11l-.06-.24s-.07-.4,0-.15,0-.1,0-.13c0-.36,0,0,0,0s.06-.21.06-.23,0-.07-.06.12a1.3,1.3,0,0,1,.08-.17c0-.06.07-.11.1-.16.16-.27-.21.2,0,0s.29-.29.45-.42c0,0-.26.18,0,0l.28-.18a22.29,22.29,0,0,1,2.43-1.25,1.48,1.48,0,0,0,.53-2,1.5,1.5,0,0,0-2-.53Z"/><path d="M41,39.16a6.21,6.21,0,0,0-5.33,3.38,5.63,5.63,0,0,0,1,6.32A5.15,5.15,0,0,0,42.87,50a5.43,5.43,0,0,0,2.31-2.29,5.33,5.33,0,0,0,.5-3.17,6.21,6.21,0,0,0-1.25-3.37A3,3,0,0,0,41,40.32a1.5,1.5,0,0,0-1,1.8,1.49,1.49,0,0,0,1.8,1l.28-.09c.32-.1,0,0,0,0h.19c.26,0-.1,0-.12,0s.16.06.17.05-.29-.16-.08,0-.26-.27,0,0l.18.2s-.19-.31-.06-.07l.1.17s.18.31.06.1,0,0,0,.07a6.59,6.59,0,0,1,.27,1.06s.06.4,0,.17,0,.16,0,.17l0,.49c0,.08,0,.15,0,.23,0,.36.06-.19,0,0a6.09,6.09,0,0,1-.17.61c.11-.29,0,.08-.11.18l-.13.2c-.19.31.13-.13,0,0L42,47l-.18.15c.25-.21,0,0-.08,0s-.31.17-.47.26.32-.09,0,0l-.23.07-.23.06c-.35.1.21,0,0,0s-.43,0-.65,0c.33,0-.07,0-.18,0l-.22-.07c-.35-.1.16.1,0,0l-.45-.25-.19-.14c.28.2,0,0-.06-.06s-.24-.26-.36-.38.18.28,0,0l-.13-.2c-.1-.15-.17-.31-.26-.46s.1.32,0,0l-.09-.28a4.64,4.64,0,0,1-.11-.51c.07.36,0-.14,0-.25s0-.19,0-.29-.06.31,0,0,.09-.38.15-.57,0,0,0,0l.15-.32.15-.25s.24-.34.13-.19.11-.12.11-.13l.2-.21.22-.2c.22-.21-.19.11.08-.07a5.19,5.19,0,0,1,.5-.31l.21-.11c.3-.16-.2.06.09,0s.38-.12.57-.16c0,0,.4-.06.16,0s.24,0,.28,0a1.46,1.46,0,0,0,0-2.92Z"/><path d="M80.92,80.82a35.16,35.16,0,0,0-14.67-4.39A26.7,26.7,0,0,0,53.48,79,31.56,31.56,0,0,0,47.29,83a1.49,1.49,0,0,0,0,2.07,1.5,1.5,0,0,0,2.07,0,26.24,26.24,0,0,1,10.26-5.12,24.93,24.93,0,0,1,12.1.3,36.45,36.45,0,0,1,7.73,3.11c1.66.88,3.14-1.64,1.47-2.53Z"/></g></svg>