<svg xmlns="http://www.w3.org/2000/svg" viewBox="0 0 121.59 125.59"><defs><style>.cls-1{fill:#ff8900;}.cls-2{fill:#fff;}</style></defs><title>face</title><g id="Layer_2" data-name="Layer 2"><path class="cls-1" d="M80.79,88.36a3.92,3.92,0,1,0-3.92-3.92,4,4,0,0,0,3.92,3.92Z"/><path class="cls-1" d="M43.1,88.69a3.92,3.92,0,1,0-3.92-3.92,4,4,0,0,0,3.92,3.92Z"/><path class="cls-1" d="M68.48,120.61c14.8-.87,30.43-7.36,38-16.53s10.62-21.47,10.68-33.38a66.34,66.34,0,0,0-7.45-31.64A57.73,57.73,0,0,0,66.28,9.5a57.28,57.28,0,0,0-49,19A56.79,56.79,0,0,0,5.56,79.64a56.33,56.33,0,0,0,36.07,38.08c11.59,3.81,14.65,2.89,26.85,2.89"/><path class="cls-1" d="M68.48,121.91c12.12-.75,24.74-4.68,34.3-12.37s14.06-20,15.33-31.84a68.7,68.7,0,0,0-7-38.91,58.76,58.76,0,0,0-24.3-24.16A56.7,56.7,0,0,0,53.15,8.28,59.28,59.28,0,0,0,21.28,22.61c-18.12,16.07-24,43.56-14,65.61,9.12,20.21,30,33.92,52.24,33.79,3,0,6-.09,9-.1a1.31,1.31,0,0,0,0-2.61c-5.07,0-10.2.38-15.26-.15a53.88,53.88,0,0,1-15.38-4.25A55.3,55.3,0,0,1,13.57,94.29,53.13,53.13,0,0,1,5.06,62.93a55.57,55.57,0,0,1,11.9-32c14.32-17.79,39.44-25,61-17.36A57,57,0,0,1,104.19,32.8c7.51,10,11.18,22.38,11.64,34.79.45,12-2,24.8-9.42,34.54-6.85,8.94-18.36,13.76-29.09,16a64.27,64.27,0,0,1-8.84,1.18c-1.67.1-1.69,2.72,0,2.61Z"/><path class="cls-2" d="M60.53,73.15A2.18,2.18,0,1,0,58.35,71a2.22,2.22,0,0,0,2.18,2.18Z"/><path class="cls-2" d="M43,88.64c1.6-.77,3.58-1.55,4.13-3.42.61-2.06-1-4.32-2.71-5.27a5.09,5.09,0,0,0-5.9.64A4.82,4.82,0,0,0,43,88.91a1.31,1.31,0,0,0-.69-2.52l-.49.12c.35-.06-.17,0-.26,0l-.2,0c.32,0,.09,0,0,0a5.44,5.44,0,0,1-.54-.15c.28.09.06,0,0,0l-.22-.12c-.08,0-.49-.34-.24-.14a3.39,3.39,0,0,1-.34-.31,1.54,1.54,0,0,1-.17-.19c-.18-.19.1.19,0-.06s-.17-.28-.25-.43c0,0,.09.26,0,0l-.08-.24-.06-.25c0-.23,0,0,0,0a4.53,4.53,0,0,1,0-.64c0,.32,0-.13.06-.22a2.58,2.58,0,0,0,.08-.26c.08-.23,0,0,0,0a4.31,4.31,0,0,1,.26-.47l.15-.22,0,.05.14-.16c.11-.12.24-.22.35-.34s-.24.16,0,0l.18-.12A4.31,4.31,0,0,1,41.1,82c-.24.12-.07,0,0,0s.23-.08.36-.1.31,0,0,0l.22,0a4.87,4.87,0,0,1,.54,0c-.29,0,0,0,0,0l.26.06.21.07c.1,0,.3.12.09,0a5.42,5.42,0,0,1,.48.26c.08,0,.15.11.23.15s-.22-.19,0,0a4.75,4.75,0,0,1,.4.38l.14.16c.2.22-.08-.14.06.09a3.64,3.64,0,0,1,.28.47l.09.19c-.12-.28,0,.06,0,.1l.06.21s.06.36,0,.14,0,.09,0,.11c0,.33,0,0,0,0s-.06.19-.06.21,0,.06.06-.11l-.08.15-.09.15c-.14.24.19-.19,0,0l-.41.38s.23-.16,0,0l-.24.16a20.3,20.3,0,0,1-2.18,1.11,1.32,1.32,0,0,0-.47,1.79,1.34,1.34,0,0,0,1.79.47Z"/><path class="cls-2" d="M80.16,88.94a5.53,5.53,0,0,0,4.76-3A5.05,5.05,0,0,0,84,80.28a4.59,4.59,0,0,0-5.51-1,4.86,4.86,0,0,0-2.06,2A4.78,4.78,0,0,0,76,84.16a5.58,5.58,0,0,0,1.12,3,2.73,2.73,0,0,0,3,.72,1.31,1.31,0,1,0-.7-2.52l-.25.08c-.28.09,0,0,0,0a1,1,0,0,1-.17,0c-.23,0,.09,0,.11,0s-.14,0-.15,0,.26.15.07,0,.23.23,0,0a1.52,1.52,0,0,0-.17-.18s.17.27.06.06l-.09-.15s-.15-.28-.05-.09,0,0,0-.07a5.19,5.19,0,0,1-.24-.94s-.05-.36,0-.15,0-.15,0-.15c0-.15,0-.3,0-.44s0-.14,0-.21c0-.32-.06.17,0,0s.09-.36.16-.55c-.11.27,0-.06.1-.15a1.74,1.74,0,0,1,.11-.18c.17-.28-.12.11,0,0s.21-.23.33-.34l.16-.14c-.23.19,0,0,.08,0a3.3,3.3,0,0,1,.41-.23c.17-.1-.28.08,0,0a1.52,1.52,0,0,1,.2-.06l.21,0c.31-.09-.18,0,0,0H81c-.29,0,.06,0,.16.06a1.52,1.52,0,0,1,.2.06c.31.09-.15-.09,0,0l.4.23.17.12c-.24-.18,0,0,0,.06s.22.23.33.34-.16-.25,0,0a1.63,1.63,0,0,0,.11.17c.09.14.15.28.23.41s-.09-.28,0,0a2.25,2.25,0,0,0,.08.24c0,.15.07.31.1.46-.06-.33,0,.12,0,.22s0,.17,0,.26.06-.28,0,0-.09.34-.14.5,0,0,0,0-.09.19-.14.28l-.13.22s-.22.31-.12.17l-.1.12L82,85.5c-.06.06-.13.11-.19.18s.17-.11-.07,0l-.45.29-.19.09c-.27.14.18,0-.08,0a4.91,4.91,0,0,1-.51.15s-.35,0-.14,0-.21,0-.25,0a1.31,1.31,0,1,0,0,2.61Z"/><path class="cls-2" d="M74.36,51.55a31.58,31.58,0,0,0-13.1-3.95,23.83,23.83,0,0,0-11.33,2.28,28.49,28.49,0,0,0-5.6,3.55,1.32,1.32,0,0,0,0,1.85,1.35,1.35,0,0,0,1.85,0,23.48,23.48,0,0,1,9.17-4.56,22.11,22.11,0,0,1,10.81.3A31.82,31.82,0,0,1,73,53.81c1.49.79,2.81-1.47,1.32-2.26Z"/></g></svg>