<svg xmlns="http://www.w3.org/2000/svg" viewBox="0 0 185 215"><defs><style>.cls-1{fill:#ff8900;}.cls-2{fill:#fff;}</style></defs><title>good-face-arrow</title><g id="Layer_2" data-name="Layer 2"><path class="cls-1" d="M43.22,148.08c-1.2-2.82-.06-6.05.64-8.85s1.3-6,0-8.84A10.21,10.21,0,0,0,37.1,125a49.1,49.1,0,0,0-5.54-1,16.62,16.62,0,0,0-5.8,0c-1.37.27-.79,2.36.58,2.09a15.62,15.62,0,0,1,5.74.18,37.89,37.89,0,0,1,4.94,1,7.4,7.4,0,0,1,5.42,6c.32,2.76-.73,5.52-1.34,8.17s-.85,5.29.25,7.86c.54,1.28,2.42.18,1.87-1.1Z"/><path class="cls-1" d="M26.25,124c-3,0-6.14,1.2-7.63,4-1,1.81-.37,4,.13,5.88.73,2.7,1.72,5.32,2.66,7.95.7,2,1.72,4.13,1.83,6.22.06,1.25,2,1.26,2,0a20.47,20.47,0,0,0-1.46-5.52c-.84-2.41-1.75-4.8-2.52-7.24-.54-1.69-1.39-3.83-1.13-5.64C20.45,127,24,126,26.25,126a1,1,0,0,0,0-1.95Z"/><path class="cls-1" d="M43,203.36c.89,2,2.79,3.89,5,2.42,1.88-1.24,2.28-3.35,2.21-5.43l-.78-24.42H47.25c.07,1.91,1.68,3.68,2.94,5s2.89,2.85,4.69,3.13c2.37.37,4.06-1.54,4.32-3.72s-1-3.77-2-5.45c-.55-.86-1.12-1.72-1.61-2.61a23,23,0,0,1-1.41-3.9c-1-2.83-2-5.63-3.23-8.36-1.53-3.44-3.34-7-6.06-9.66a11.07,11.07,0,0,0-6.25-3.14c-1.37-.19-2,1.9-.58,2.09,4.52.62,7.2,4.36,9.27,8.22a82.56,82.56,0,0,1,5.5,13.67A21.39,21.39,0,0,0,55.31,176c.87,1.39,2.16,2.93,1.63,4.66-.74,2.39-3,.76-4.14-.25a16.79,16.79,0,0,1-2.23-2.31,4.46,4.46,0,0,1-1.15-2.13c-.06-1.39-2.22-1.4-2.17,0l.62,19.49L48,200.1a5.14,5.14,0,0,1-.27,2.67c-.23.47-.72,1.29-1.31,1.37-.84.1-1.35-1.3-1.6-1.87-.57-1.28-2.44-.18-1.88,1.09Z"/><path class="cls-1" d="M23.13,148.07c-.09,4.29-1.25,8.32-2.16,12.47a74.8,74.8,0,0,0-1.32,12.05,12,12,0,0,0,.72,5.08c.56,1.51,1.24,3.1,2.77,3.83a5.29,5.29,0,0,0,4.53-.2,3.49,3.49,0,0,0,1.67-3.91l-2,.84a4.49,4.49,0,0,0,4.15,2.5,5.24,5.24,0,0,0,4.05-3.07l-2-.25c.43,1.77,2.67,2.87,4.29,3.26a3.72,3.72,0,0,0,4.58-3.08l-2.13-.29c.79,8.26,1.71,16.52,2.5,24.78.13,1.38,2.31,1.39,2.17,0-.79-8.26-1.71-16.52-2.5-24.78-.1-1.11-1.94-1.6-2.13-.29a1.66,1.66,0,0,1-2.44,1.41c-.7-.25-2-.78-2.24-1.59a1.1,1.1,0,0,0-2-.26c-1,2-3.13,2.8-4.45.56a1.09,1.09,0,0,0-2,.84c.26,1.55-1.63,2-2.83,1.69s-1.73-1.95-2.13-3.06c-1-2.79-.23-5.87-.14-8.76.22-6.72,3-13,3.15-19.77a1.09,1.09,0,0,0-2.17,0Z"/><path class="cls-1" d="M76,56a4.5,4.5,0,1,0-4.5-4.5A4.56,4.56,0,0,0,76,56Z"/><path class="cls-1" d="M119.23,55.59a4.5,4.5,0,1,0-4.5-4.5,4.55,4.55,0,0,0,4.5,4.5Z"/><path class="cls-1" d="M163.45,89.74c4.43-13.25,5.7-28.7,1.41-42.16-4.12-12.94-14.75-22.83-26.42-29.18C124.82,11,108.73,7.12,93.23,8.75A67.89,67.89,0,0,0,57.38,24a65.1,65.1,0,0,0-21.7,33.88,67.5,67.5,0,0,0,2.79,42.38,66,66,0,0,0,25.3,29.95,64.42,64.42,0,0,0,37.68,10.34A67,67,0,0,0,139,126.72a70.63,70.63,0,0,0,13.88-14.59A59.79,59.79,0,0,0,160,98.64c1.17-3,2.29-6,3.49-8.9.72-1.79-2.18-2.57-2.9-.8-2,5-3.74,10.29-6.23,15.14a61.3,61.3,0,0,1-9.94,13.68A63.39,63.39,0,0,1,111,136.31a60.76,60.76,0,0,1-37.16-4.09,64.36,64.36,0,0,1-28-24.33,63.35,63.35,0,0,1-9-39A62.17,62.17,0,0,1,52.45,32.81,65.64,65.64,0,0,1,84.18,13.43c14.44-3.81,29.78-2,43.59,3.32,12.19,4.7,23.84,12.51,30.68,23.88S165.5,66.42,163.14,79a73.82,73.82,0,0,1-2.59,10c-.61,1.84,2.29,2.62,2.9.8Z"/><path class="cls-1" d="M99.23,69.44a2.5,2.5,0,1,0-2.5-2.5,2.53,2.53,0,0,0,2.5,2.5Z"/><path class="cls-2" d="M120.1,47.94c-2.08,1-4.57,2-4.09,4.2a4.89,4.89,0,0,0,5.1,3.75A4.49,4.49,0,0,0,124.94,51a4.16,4.16,0,0,0-5.17-3.22"/><path class="cls-1" d="M119.34,46.64c-1.83.89-4.11,1.79-4.75,3.93-.7,2.37,1.13,5,3.12,6.06a5.85,5.85,0,0,0,6.77-.74,5.54,5.54,0,0,0-5.11-9.56,1.5,1.5,0,0,0,.8,2.9,3.65,3.65,0,0,1,.57-.14c-.41.07.18,0,.28,0l.23,0c-.35,0-.09,0,0,0s.41.11.61.18c-.31-.1-.07,0,0,0l.26.14c.09,0,.55.39.27.16a4.4,4.4,0,0,1,.39.35l.2.22c.2.22-.12-.22,0,.07s.2.33.29.5c0,0-.1-.3,0,0a2.29,2.29,0,0,1,.09.28,2.86,2.86,0,0,1,.07.28c.06.27,0,0,0,0a5.9,5.9,0,0,1,0,.73c0-.37,0,.16-.07.26l-.09.29c-.09.26,0,0,0,0a4.68,4.68,0,0,1-.3.54,2.2,2.2,0,0,1-.17.25c-.06.09,0,.07,0-.06l-.17.19c-.12.14-.27.25-.4.39s.29-.19,0,0l-.21.13a3.5,3.5,0,0,1-.54.29c.28-.13.08,0,0,0l-.41.12c-.09,0-.37.05,0,0l-.25,0c-.21,0-.41,0-.62,0,.33,0,.06,0,0,0l-.31-.07-.24-.07c-.11,0-.34-.15-.1,0a4.83,4.83,0,0,1-.55-.3l-.27-.17c-.2-.12.25.22,0,0a4.6,4.6,0,0,1-.46-.43c0-.06-.11-.12-.16-.19-.23-.25.09.17-.07-.09a5.89,5.89,0,0,1-.32-.54,2.4,2.4,0,0,1-.11-.23c.14.33,0-.06,0-.11a2.17,2.17,0,0,1-.07-.24s-.07-.41,0-.16,0-.11,0-.13c0-.37,0,0,0,0s.06-.22.06-.24,0-.07-.06.12l.09-.17.1-.17c.16-.27-.22.22,0,0a6.17,6.17,0,0,1,.46-.43s-.26.18,0,0l.29-.19a24.49,24.49,0,0,1,2.5-1.28,1.51,1.51,0,0,0,.53-2,1.54,1.54,0,0,0-2-.54Z"/><path class="cls-2" d="M76.68,47.8a4.75,4.75,0,0,0-4.54,4,4.33,4.33,0,0,0,3.62,4.69A4,4,0,0,0,80,52.54c-.12-2.19-.87-4.39-2.92-3.6"/><path class="cls-1" d="M76.68,46.3a6.35,6.35,0,0,0-5.46,3.46,5.77,5.77,0,0,0,1,6.48,5.27,5.27,0,0,0,6.33,1.13A5.5,5.5,0,0,0,80.93,55a5.42,5.42,0,0,0,.53-3.24,6.48,6.48,0,0,0-1.28-3.47,3.14,3.14,0,0,0-3.48-.83,1.5,1.5,0,0,0,.8,2.9l.28-.1c.32-.09,0,0,0,0H78c.27,0-.11,0-.13,0s.16.05.18.05c-.14,0-.3-.17-.09,0s-.26-.27,0,0a2.09,2.09,0,0,0,.19.21s-.2-.32-.07-.07l.1.17.06.11c-.1-.19,0,0,0,.07a6.68,6.68,0,0,1,.27,1.09s.06.4,0,.17,0,.17,0,.17c0,.17,0,.34,0,.5s0,.16,0,.24c0,.37.06-.19,0,0a6.52,6.52,0,0,1-.18.63c.12-.3,0,.08-.11.18l-.13.2c-.2.32.13-.13,0,0s-.25.27-.38.39l-.19.16c.26-.22,0,0-.09,0s-.31.18-.47.27.32-.09,0,0l-.23.08-.23,0c-.36.11.2,0,0,0a5,5,0,0,1-.67,0c.34,0-.07,0-.18-.06l-.23-.07c-.35-.11.17.1,0,0l-.46-.26-.2-.14c.28.21,0,0-.06-.07s-.24-.26-.37-.38.18.28,0,0l-.13-.2c-.1-.15-.17-.32-.26-.47s.1.33,0,0l-.1-.28c0-.17-.08-.35-.12-.52.08.37,0-.15,0-.26s0-.2,0-.3c0,.06-.06.32,0,0s.1-.39.15-.58,0,0,0,0a1.91,1.91,0,0,1,.16-.32,2.2,2.2,0,0,1,.15-.26s.25-.35.13-.2.11-.12.11-.13l.21-.22.23-.2c.22-.22-.2.12.08-.07s.33-.22.51-.32l.22-.11c.3-.16-.21.06.09,0l.59-.17s.4-.06.16,0,.24,0,.28,0a1.5,1.5,0,0,0,0-3Z"/><path class="cls-1" d="M83.34,89.23a35.89,35.89,0,0,0,15,4.53,27.34,27.34,0,0,0,13-2.61,32.44,32.44,0,0,0,6.42-4.08,1.52,1.52,0,0,0,0-2.12,1.56,1.56,0,0,0-2.13,0,26.88,26.88,0,0,1-10.53,5.23,25.63,25.63,0,0,1-12.42-.34,36.78,36.78,0,0,1-7.89-3.2c-1.71-.91-3.22,1.68-1.52,2.59Z"/></g></svg>