<svg xmlns="http://www.w3.org/2000/svg" viewBox="0 0 185 192"><defs><style>.cls-1{fill:#ff8900;}.cls-2{fill:#fff;}</style></defs><title>good-face</title><g id="Layer_2" data-name="Layer 2"><path class="cls-1" d="M116,121.33a4.5,4.5,0,1,0-4.5-4.5,4.55,4.55,0,0,0,4.5,4.5Z"/><path class="cls-1" d="M72.76,121.7a4.5,4.5,0,1,0-4.5-4.5,4.55,4.55,0,0,0,4.5,4.5Z"/><path class="cls-1" d="M101.89,158.36c17-1,35-8.45,43.68-19s12.19-24.65,12.26-38.33c0-12.57-2.6-25.26-8.55-36.33A66.31,66.31,0,0,0,99.37,30.78,65.74,65.74,0,0,0,43.13,52.57a65.21,65.21,0,0,0-13.48,58.75,64.67,64.67,0,0,0,41.42,43.73c13.31,4.37,16.82,3.31,30.82,3.31"/><path class="cls-1" d="M101.89,159.86c13.85-.86,28.23-5.34,39.19-14.05s16.29-22.88,17.79-36.53C160.53,94,158,78,150.78,64.36a67.53,67.53,0,0,0-27.72-27.61,65.13,65.13,0,0,0-38.74-7.38A68.16,68.16,0,0,0,47.64,45.88a66,66,0,0,0-16.06,75.21A66.92,66.92,0,0,0,56.85,150,65.24,65.24,0,0,0,91.8,160c3.37,0,6.73-.11,10.09-.11a1.5,1.5,0,0,0,0-3c-5.78,0-11.64.43-17.41-.16A62.13,62.13,0,0,1,67,151.93,63.54,63.54,0,0,1,39,128.3a61,61,0,0,1-9.86-36.37A62.12,62.12,0,0,1,74.68,34.38a62.41,62.41,0,0,1,38,1,65.37,65.37,0,0,1,30.18,22c8.71,11.57,13,25.91,13.45,40.29.46,13.76-2.32,28.33-10.87,39.47-7.88,10.26-21.14,15.79-33.48,18.33a72.07,72.07,0,0,1-10,1.34c-1.91.11-1.93,3.12,0,3Z"/><path class="cls-2" d="M92.77,103.86a2.5,2.5,0,1,0-2.5-2.5,2.53,2.53,0,0,0,2.5,2.5Z"/><path class="cls-2" d="M72.65,121.65c1.84-.88,4.11-1.78,4.75-3.93.7-2.36-1.13-5-3.12-6a5.83,5.83,0,0,0-6.77.74A5.53,5.53,0,0,0,72.62,122a1.5,1.5,0,1,0-.8-2.89,5.09,5.09,0,0,1-.56.14c.4-.07-.19,0-.29,0l-.23,0c.36,0,.1,0,0,0a6.13,6.13,0,0,1-.61-.18c.31.11.07,0,0,0l-.26-.13c-.09-.06-.56-.4-.28-.17-.13-.11-.26-.22-.39-.35l-.19-.21c-.21-.23.12.21,0-.07l-.29-.5s.11.29,0,0l-.09-.27c0-.1,0-.19-.07-.29-.06-.27,0,0,0,0a5.93,5.93,0,0,1,0-.73c0,.37,0-.15.07-.26s.07-.19.1-.29c.08-.26,0,0,0,0,.09-.18.18-.36.29-.54l.17-.25c.07-.09,0-.07,0,.06,0-.06.1-.13.16-.19l.4-.38c.16-.17-.28.18,0,0l.2-.14a4.63,4.63,0,0,1,.54-.29c-.27.13-.08,0,0,0s.28-.09.42-.12.36-.06,0,0l.25,0c.21,0,.42,0,.63,0-.33,0-.07,0,0,0l.3.08.24.07c.11,0,.34.14.1,0a5.93,5.93,0,0,1,.56.29l.26.18c.2.12-.25-.23,0,0s.32.28.46.43l.17.19c.22.25-.09-.17.07.1s.22.35.31.54a2.26,2.26,0,0,1,.11.22c-.14-.32,0,.07,0,.11l.06.25s.07.41,0,.15,0,.11,0,.14c0,.37,0,0,0,0s-.06.22-.06.24,0,.06.06-.13a.89.89,0,0,1-.08.17c0,.06-.07.12-.11.17-.16.28.22-.21,0,0s-.3.29-.47.43c0,0,.26-.18,0,0l-.29.19a21.67,21.67,0,0,1-2.49,1.28,1.51,1.51,0,0,0-.54,2,1.53,1.53,0,0,0,2.05.54Z"/><path class="cls-2" d="M115.31,122a6.34,6.34,0,0,0,5.47-3.45,5.78,5.78,0,0,0-1-6.49,5.29,5.29,0,0,0-6.33-1.13,5.61,5.61,0,0,0-2.36,2.34,5.45,5.45,0,0,0-.52,3.25,6.34,6.34,0,0,0,1.28,3.46,3.12,3.12,0,0,0,3.47.83,1.52,1.52,0,0,0,1-1.84,1.5,1.5,0,0,0-1.84-1l-.29.09c-.32.1,0,0,0,0H114c-.27,0,.1,0,.12,0S114,118,114,118s.29.16.08,0,.26.28.06,0l-.19-.2s.19.31.06.07l-.1-.18s-.18-.31-.06-.1,0,0,0-.08a7.75,7.75,0,0,1-.27-1.08s-.05-.41,0-.17,0-.17,0-.18,0-.33,0-.5,0-.16,0-.24c0-.37-.06.2,0,0s.1-.42.18-.63c-.11.3,0-.07.12-.18l.13-.2c.19-.32-.14.13,0,0s.24-.27.38-.4l.18-.16c-.26.22,0,0,.09,0s.32-.17.48-.26-.33.09,0,0l.23-.07.24-.06c.36-.1-.21,0,0,0s.44,0,.66,0c-.34,0,.07,0,.19.06l.22.07c.35.1-.17-.11,0,0a5,5,0,0,1,.46.26l.2.13c-.28-.2,0,0,.06.07s.24.26.37.39-.18-.29,0,0l.14.19.26.48c.11.19-.11-.33,0,0l.09.29c0,.17.08.34.12.52-.07-.37,0,.14,0,.25s0,.2,0,.3.06-.32,0,0-.09.39-.15.59,0,0,0,0l-.16.33-.16.26s-.24.35-.12.19-.12.13-.12.13l-.21.22-.22.21c-.22.21.2-.12-.08.06a5.69,5.69,0,0,1-.52.33l-.22.11c-.3.16.21-.06-.09,0a4.23,4.23,0,0,1-.58.17s-.41.06-.16,0-.25,0-.29,0a1.53,1.53,0,0,0-1.5,1.5,1.51,1.51,0,0,0,1.5,1.5Z"/><path class="cls-2" d="M108.65,79.06A36.18,36.18,0,0,0,93.6,74.53a27.37,27.37,0,0,0-13,2.62,32.48,32.48,0,0,0-6.41,4.07,1.5,1.5,0,0,0,0,2.12,1.53,1.53,0,0,0,2.12,0,26.92,26.92,0,0,1,10.54-5.23,25.59,25.59,0,0,1,12.41.34,37.6,37.6,0,0,1,7.9,3.2c1.7.91,3.22-1.68,1.51-2.59Z"/></g></svg>