<svg xmlns="http://www.w3.org/2000/svg" viewBox="0 0 149 152"><defs><style>.cls-1{fill:#ff8900;}.cls-2{fill:#33f;}.cls-3{fill:#fff;}</style></defs><title>good-face-blue</title><g id="Layer_2" data-name="Layer 2"><path class="cls-1" d="M50.46,59.26a4.5,4.5,0,1,0-4.5-4.5,4.55,4.55,0,0,0,4.5,4.5Z"/><path class="cls-1" d="M93.74,58.89a4.5,4.5,0,1,0-4.5-4.5,4.55,4.55,0,0,0,4.5,4.5Z"/><path class="cls-2" d="M9.69,84.9c.61,17,7.63,35.13,18,44.11s24.35,12.76,38,13.14c12.56.36,25.31-2,36.52-7.69a66.36,66.36,0,0,0,35.1-49.1,65.82,65.82,0,0,0-20.48-56.74A65.25,65.25,0,0,0,58.4,13.77,64.7,64.7,0,0,0,13.72,54.16C9,67.36,10,70.91,9.69,84.9"/><path class="cls-3" d="M73.73,72.73a2.5,2.5,0,1,0-2.5-2.5,2.53,2.53,0,0,0,2.5,2.5Z"/><path class="cls-3" d="M93.84,49.94c-1.83.88-4.11,1.79-4.74,3.93-.71,2.36,1.12,5,3.11,6.05A5.83,5.83,0,0,0,99,59.18a5.53,5.53,0,0,0-5.1-9.55,1.5,1.5,0,1,0,.79,2.89c.19-.06.38-.1.57-.14-.4.07.18,0,.29,0l.23,0c-.36,0-.1,0,0,0a6.13,6.13,0,0,1,.61.18c-.31-.11-.06,0,0,0l.26.13c.09.06.55.4.27.17a3.25,3.25,0,0,1,.39.35l.2.22c.2.22-.12-.22,0,.06s.2.33.29.5c0,0-.1-.29,0,0a2.76,2.76,0,0,1,.08.27c0,.1,0,.19.07.29.06.27,0,0,0,0,0,.25,0,.48,0,.73,0-.37,0,.15-.08.26l-.09.29c-.09.26,0,0,0,0-.09.18-.18.36-.29.54l-.18.25c-.06.09,0,.07,0-.06l-.16.19c-.13.13-.28.25-.4.38s.28-.18,0,0l-.2.14a5.77,5.77,0,0,1-.55.29c.28-.13.09,0,0,0s-.27.09-.41.12-.37.06,0,0l-.25,0c-.21,0-.41,0-.62,0,.33,0,.06,0,0,0l-.31-.07-.23-.08c-.12,0-.35-.14-.11,0a5.77,5.77,0,0,1-.55-.29L93.25,57c-.21-.11.25.23,0,0a6.14,6.14,0,0,1-.45-.43l-.17-.19c-.22-.25.09.17-.07-.1s-.22-.35-.32-.54-.07-.15-.11-.22c.14.32,0-.06,0-.11a1.82,1.82,0,0,1-.07-.25s-.06-.4,0-.15,0-.11,0-.13c0-.38,0,0,0,0s.06-.21.06-.24,0-.06-.06.13l.09-.17.1-.17c.17-.27-.21.21,0,0l.46-.43s-.26.18,0,0l.28-.19a23.54,23.54,0,0,1,2.5-1.28,1.51,1.51,0,0,0,.54-2.05,1.55,1.55,0,0,0-2.06-.54Z"/><path class="cls-3" d="M51.19,49.6a6.33,6.33,0,0,0-5.47,3.45,5.78,5.78,0,0,0,1,6.49,5.28,5.28,0,0,0,6.33,1.13,5.63,5.63,0,0,0,2.37-2.34A5.45,5.45,0,0,0,56,55.08a6.37,6.37,0,0,0-1.28-3.46,3.13,3.13,0,0,0-3.48-.83,1.5,1.5,0,1,0,.8,2.89l.29-.09c.32-.1,0,0,0,0h.2c.27,0-.11,0-.12,0s.15.06.17.05c-.14.06-.3-.16-.08,0s-.27-.28-.06-.05a1.88,1.88,0,0,0,.19.2s-.2-.31-.07-.07l.1.18s.18.32.07.1,0,0,0,.08A7.78,7.78,0,0,1,53,55.11s0,.41,0,.17,0,.17,0,.18,0,.33,0,.5a1.92,1.92,0,0,0,0,.24c0,.37.06-.19,0,0s-.11.42-.19.63c.12-.3-.05.07-.11.18l-.13.2c-.19.32.13-.13,0,0l-.38.4-.18.16c.25-.22,0,0-.09,0s-.32.17-.48.26.32-.09,0,0l-.23.07-.23.06c-.36.1.21,0,0,0s-.44,0-.67,0c.34,0-.06,0-.18-.06l-.23-.07c-.35-.1.17.11,0,0s-.31-.16-.46-.26l-.19-.13c.28.2,0,0-.07-.07s-.24-.26-.37-.39.19.29,0,0l-.13-.2c-.1-.16-.17-.32-.26-.48s.1.34,0,0c0-.1-.07-.19-.1-.29a4.36,4.36,0,0,1-.11-.52c.07.38,0-.14,0-.25s0-.2,0-.3-.07.32,0,0a5.5,5.5,0,0,1,.16-.58c.08-.27,0,0,0,0,.05-.11.1-.22.16-.33l.15-.26s.25-.35.13-.19.11-.13.11-.13l.21-.22.23-.21c.22-.21-.2.12.08-.06a5.69,5.69,0,0,1,.52-.33l.21-.11c.31-.16-.2.06.09,0s.39-.13.59-.17c0,0,.4-.06.16,0s.24,0,.29,0a1.54,1.54,0,0,0,1.5-1.5,1.52,1.52,0,0,0-1.5-1.5Z"/><path class="cls-3" d="M57.84,92.53a36.18,36.18,0,0,0,15,4.53,27.32,27.32,0,0,0,13-2.62,32.56,32.56,0,0,0,6.42-4.07,1.5,1.5,0,0,0-2.12-2.12,26.92,26.92,0,0,1-10.54,5.23,25.63,25.63,0,0,1-12.42-.34,36.78,36.78,0,0,1-7.89-3.2c-1.7-.91-3.22,1.68-1.52,2.59Z"/></g></svg>