<svg xmlns="http://www.w3.org/2000/svg" viewBox="0 0 525 468"><defs><style>.cls-1{fill:#fff;}</style></defs><title>sad-img-alt</title><g id="Layer_2" data-name="Layer 2"><path d="M331.54,174.91a16.46,16.46,0,0,0,11.28-4.67A16.21,16.21,0,0,0,347.5,159c-.19-4.13-1.54-8.41-4.68-11.29a16,16,0,0,0-22.57,0A16.26,16.26,0,0,0,315.57,159c.19,4.13,1.54,8.41,4.68,11.29a16.61,16.61,0,0,0,11.29,4.67Z"/><path class="cls-1" d="M233,23.13C177.7,26.38,119.37,50.58,91,84.82S51.35,164.93,51.15,209.41C51,250.26,59.6,291.5,78.93,327.49,111.1,387.39,173.62,430,241.16,437.83S379.41,418.33,424,367s61.64-125.34,43.83-191S397.75,55.12,333.16,33.89C289.9,19.67,278.47,23.13,233,23.13"/><path d="M233,18.25a250,250,0,0,0-68.83,14.09c-21,7.52-41.23,17.77-58.74,31.74-17,13.54-30,31.38-39.26,51-10.12,21.4-15.86,44.48-18.4,68a272.22,272.22,0,0,0,2.45,74.27,237.35,237.35,0,0,0,24.19,72,212.86,212.86,0,0,0,38.55,51.39,224.33,224.33,0,0,0,51.45,37.86,216.24,216.24,0,0,0,60.06,21.59,207.65,207.65,0,0,0,65.76,2.25,224.59,224.59,0,0,0,64.2-18.07,216.6,216.6,0,0,0,55.33-35.93,204.86,204.86,0,0,0,41.78-52.1A218.7,218.7,0,0,0,475,273.67a216,216,0,0,0,3.46-67.1,205.88,205.88,0,0,0-17.22-63,217.84,217.84,0,0,0-82.13-93.44c-18.54-11.61-38.75-19.75-59.79-25.59a181.38,181.38,0,0,0-28.55-5.65,212.94,212.94,0,0,0-25.38-1c-10.8.08-21.59.35-32.39.35-6.28,0-6.29,9.76,0,9.76,19.19,0,38.64-1.48,57.77.64,3.71.41,7.65,1,12,1.92,4.7.95,9.35,2.11,14,3.39a235.27,235.27,0,0,1,30.64,10.47,207,207,0,0,1,90.74,77.19,198.21,198.21,0,0,1,31.53,118C467.44,282.22,452,324.67,425.15,358s-64.21,57.05-105.21,68.53a202.38,202.38,0,0,1-123-4.11,212.37,212.37,0,0,1-97.33-71.61c-28.53-38-42.21-85.22-43.49-132.43-1.21-44.3,8-91.24,35.73-126.92,12.38-15.93,28.7-27.82,46.41-37.22a232.43,232.43,0,0,1,62.59-22A229.5,229.5,0,0,1,233,28a5,5,0,0,0,4.87-4.88A4.92,4.92,0,0,0,233,18.25Z"/><path d="M260.56,224a9.12,9.12,0,0,0,6.27-2.59,9.83,9.83,0,0,0,2.6-6.27,8.93,8.93,0,0,0-2.6-6.27,8.86,8.86,0,0,0-12.54,0,6.58,6.58,0,0,0-1.83,2.85,6.7,6.7,0,0,0-.77,3.42,9,9,0,0,0,2.6,6.27,9.23,9.23,0,0,0,6.27,2.59Z"/><path d="M325.44,293.76a146.83,146.83,0,0,0-27.51-11.55,110.76,110.76,0,0,0-25.86-4.52,96,96,0,0,0-24.15,1.84,97.92,97.92,0,0,0-22.32,7.56,108.23,108.23,0,0,0-19.28,11.82c-1.08.83-2.15,1.66-3.21,2.51a5.3,5.3,0,0,0-1.56,3.76,5.33,5.33,0,0,0,5.32,5.32l1.42-.19a5.25,5.25,0,0,0,2.34-1.37l1.62-1.27-1.07.83a109.29,109.29,0,0,1,18-11.35q2.67-1.33,5.42-2.49l-1.27.53a92.21,92.21,0,0,1,17.86-5.49c1.77-.35,3.54-.64,5.33-.88l-1.42.19a92.58,92.58,0,0,1,19.19-.54c1.9.14,3.79.35,5.67.6l-1.41-.19a112.59,112.59,0,0,1,23,5.71c2.28.82,4.54,1.71,6.77,2.65l-1.27-.54c4.43,1.87,8.77,4,13,6.25a5.58,5.58,0,0,0,4.1.53,5.44,5.44,0,0,0,3.18-2.44c1.3-2.48.7-5.88-1.91-7.28Z"/><path d="M148.66,175.26c13.51-15.73,36.87-18.34,52.93-4.71,4.88,4.14,12-2.9,7.07-7.07-20-16.94-49.81-15.39-67.07,4.71-4.17,4.86,2.87,12,7.07,7.07Z"/><path d="M309.54,179c14.54-21,44.6-21.92,61.25-3.05,4.27,4.84,11.32-2.26,7.07-7.07-21.19-24-59-20.93-76.95,5.08-3.67,5.3,5,10.31,8.63,5Z"/></g></svg>