<svg xmlns="http://www.w3.org/2000/svg" viewBox="0 0 245 238"><defs><style>.cls-1{fill:#fff;}</style></defs><title>sad-img</title><g id="Layer_2" data-name="Layer 2"><path d="M156.77,90.85c4.23,0,8.29-3.72,8.09-8.09a8.23,8.23,0,0,0-8.09-8.1c-4.24,0-8.3,3.72-8.1,8.1a8.24,8.24,0,0,0,8.1,8.09Z"/><path class="cls-1" d="M106.77,13.87c-28,1.65-57.61,13.92-72,31.29s-20.1,40.63-20.21,63.19c-.09,20.72,4.29,41.64,14.09,59.89,16.32,30.38,48,52,82.29,56s70.12-9.88,92.72-35.93,31.26-63.57,22.23-96.86-35.53-61.32-68.29-72.09c-21.94-7.21-27.74-5.45-50.82-5.45"/><path d="M106.77,11.39A127,127,0,0,0,71.6,18.63,102.8,102.8,0,0,0,41.86,34.8C23.74,49.35,15.18,72.68,12.8,95.19c-2.66,25.09,1.61,51.54,13.5,73.9a111.22,111.22,0,0,0,45.8,45.39,107.22,107.22,0,0,0,64,12,112.29,112.29,0,0,0,60.58-27.59A108.78,108.78,0,0,0,222.38,74.63a110.28,110.28,0,0,0-41.64-47.15,114.41,114.41,0,0,0-30.31-12.93,98.59,98.59,0,0,0-27.24-3.34c-5.47,0-11,.18-16.42.18-3.19,0-3.19,4.95,0,4.95,9.65,0,19.42-.73,29,.3a85.64,85.64,0,0,1,13.3,2.68,120.07,120.07,0,0,1,15.48,5.27,104.84,104.84,0,0,1,46,38.87,100.69,100.69,0,0,1,16.24,59.85,102.46,102.46,0,0,1-75.39,95,102.69,102.69,0,0,1-62.82-1.9,107.68,107.68,0,0,1-49.43-36.3c-14.41-19.21-21.37-43-22.08-66.85-.68-22.6,4-46.57,18.13-64.77,6.2-8,14.43-14,23.28-18.72a121.2,121.2,0,0,1,48.27-13.44c3.16-.19,3.18-5.14,0-4.95Z"/><path d="M120.77,115.76a4.5,4.5,0,1,0-4.5-4.5,4.56,4.56,0,0,0,4.5,4.5Z"/><path d="M157,74.75c-3.31,1.59-7.24,3.17-8.51,7a8.37,8.37,0,0,0,1,6.38,11.75,11.75,0,0,0,4.46,4.55,10.56,10.56,0,0,0,6.18,1.46,10.78,10.78,0,0,0,6.21-2.75,10.19,10.19,0,0,0,2.51-12c-2-4.14-7.32-6.62-11.75-5.18a2.7,2.7,0,1,0,1.43,5.21l.47-.14c.12,0,.76-.13.28-.07s.09,0,.2,0a5.23,5.23,0,0,1,.56,0,4.05,4.05,0,0,0,.48,0s-.59-.12-.32,0l.32.06a8.78,8.78,0,0,1,1,.29c.46.15-.47-.24,0,0l.5.26c.25.14.64.53.89.58,0,0-.41-.36-.22-.17l.19.16.41.39.33.36c.4.44-.21-.33,0,0s.37.6.54.9c0,0,.07.2.11.22s-.2-.53-.12-.27.13.36.18.54a3.59,3.59,0,0,1,.12.47,2,2,0,0,0,.06.32s0-.57,0-.28,0,.75,0,1.13.11-.53,0,0c0,.2-.08.4-.13.59a4.74,4.74,0,0,1-.15.5l-.09.24c-.12.35,0-.07.07-.16a9.33,9.33,0,0,0-.54,1c-.09.15-.2.29-.29.44s.15-.2.15-.2a1.88,1.88,0,0,0-.22.26,7.74,7.74,0,0,1-.81.81,1.63,1.63,0,0,0-.2.17l.21-.15-.51.34-.45.26c-.08,0-.71.33-.31.17s-.15,0-.24.08a4,4,0,0,1-.59.17c-.11,0-.79.14-.32.09s-.16,0-.26,0a11.11,11.11,0,0,0-1.15,0s.58.1.29,0l-.35-.06-.51-.12-.51-.16-.25-.09c-.34-.12.06,0,.16.07a11,11,0,0,0-1-.54l-.44-.29c-.5-.35.24.23-.09-.06a10.58,10.58,0,0,1-.84-.8l-.35-.4c-.2-.21.14.19.14.2a1.87,1.87,0,0,0-.2-.29,7.6,7.6,0,0,1-.59-1c-.05-.09-.29-.62-.12-.24s-.08-.23-.11-.34-.12-.4-.16-.6a1,1,0,0,0-.06-.25s0,.59,0,.31,0-.31,0-.46,0-.15,0-.23c0-.37,0,.22,0,.29a3.05,3.05,0,0,0,.14-.54c.1-.39-.3.55,0,.07l.25-.41c0-.08.21-.29,0,0s0,0,.06,0a8.5,8.5,0,0,1,.75-.72c.32-.28-.48.33,0,0l.53-.36a45.37,45.37,0,0,1,4.5-2.3,2.7,2.7,0,0,0,1-3.69,2.77,2.77,0,0,0-3.69-1Z"/><path d="M80.21,74.13a11.43,11.43,0,0,0-9.85,6.25,10.41,10.41,0,0,0-.88,6.38A10.69,10.69,0,0,0,72.16,92a9.75,9.75,0,0,0,5.08,3,9.57,9.57,0,0,0,6.35-.89,10,10,0,0,0,4.21-4.12,9.62,9.62,0,0,0,1-5.94,11.47,11.47,0,0,0-2.32-6.25,5.62,5.62,0,0,0-6.23-1.47,2.7,2.7,0,1,0,1.43,5.2l.5-.16c.35-.09.48.06-.1,0a3.12,3.12,0,0,0,.43,0c.51,0-.67-.18-.19,0,.31.1.34.24-.16-.11a3.54,3.54,0,0,0,.33.19c.21.11.1.24-.24-.2.1.13.26.25.37.38.35.36-.35-.56-.09-.11.07.13.15.25.22.37s.12.3.2.41c-.36-.45-.15-.38,0-.07a11.26,11.26,0,0,1,.5,2l0,.18c0,.29,0,.23,0-.19,0,0,0,.51.06.54,0,.3,0,.61.06.91s0,.34,0,.52c0,.6.15-.63,0,0a6.12,6.12,0,0,0-.33,1.14c-.08-.11.25-.56,0-.09l-.2.37-.28.44c-.31.51.41-.44,0,0a10.29,10.29,0,0,1-.72.76,4,4,0,0,1-.4.34c.3-.23.37-.28.2-.17s-.14.1-.21.15a8.13,8.13,0,0,1-.91.51c-.53.29.59-.18,0,0l-.49.16c-.17.05-.34.08-.51.12-.56.15.51,0,.13,0s-.75,0-1.13,0c-.61,0,.62.15,0,0l-.5-.12-.48-.15c-.55-.17.43.21.09,0a9.1,9.1,0,0,1-.81-.44s-.41-.3-.42-.29l.14.11-.26-.22c-.25-.23-.47-.49-.71-.74s.16.07.1.15-.27-.39-.29-.43a7.08,7.08,0,0,1-.51-.89L75,86.64c-.12-.27-.09-.21.07.17a4.16,4.16,0,0,0-.22-.65c-.08-.27-.13-.55-.19-.83-.13-.59,0,.64,0,0,0-.17,0-.34,0-.51s0-.34,0-.52c0-.6-.14.63,0,0a9.54,9.54,0,0,1,.26-1s.17-.5.18-.49c-.17.37-.18.43-.06.16,0-.1.1-.21.16-.31s.45-1,.66-1c-.07,0-.36.42-.09.13s.31-.35.48-.51a4.59,4.59,0,0,1,.39-.37l.26-.22-.12.09a10.22,10.22,0,0,1,1-.65l.31-.16c.27-.12.22-.1-.16.06l.33-.13a8.41,8.41,0,0,1,1.19-.33l.18,0-.2,0a4.55,4.55,0,0,0,.71,0,2.7,2.7,0,0,0,0-5.4Z"/><path d="M153.67,151.13c-8.37-4.49-17.52-7.65-27.07-8.15A49.17,49.17,0,0,0,103,147.75,58.22,58.22,0,0,0,91.63,155a2.7,2.7,0,0,0,0,3.81,2.76,2.76,0,0,0,3.81,0,6.65,6.65,0,0,0,.59-.46l-.17.13.29-.22,1.2-.89c.78-.55,1.56-1.09,2.37-1.61a51.31,51.31,0,0,1,4.82-2.77c.81-.41,1.63-.8,2.46-1.16l.33-.15-.23.1c.22-.09.44-.19.67-.27.44-.18.89-.36,1.35-.52a47.75,47.75,0,0,1,5.27-1.59c.92-.21,1.84-.4,2.77-.56l1.27-.2c.5-.07-.14,0-.18,0a1.72,1.72,0,0,1,.37-.05l.73-.08a47.13,47.13,0,0,1,5.82-.24c1,0,1.92.08,2.89.15l1.46.15.69.08c.14,0,.52,0-.13,0,.17,0,.33,0,.5.07a55.76,55.76,0,0,1,6.14,1.28,62.77,62.77,0,0,1,7.09,2.38l1,.39c.38.16-.38-.17,0,0l.53.23,1.83.83c1.29.61,2.56,1.26,3.82,1.93a2.7,2.7,0,1,0,2.72-4.66Z"/></g></svg>