<svg xmlns="http://www.w3.org/2000/svg" viewBox="0 0 525 468"><defs><style>.cls-1{fill:#fff;}</style></defs><title>sad-img</title><g id="Layer_2" data-name="Layer 2"><path d="M331.54,174.91a16.46,16.46,0,0,0,11.28-4.67A16.21,16.21,0,0,0,347.5,159c-.19-4.13-1.54-8.41-4.68-11.29a16,16,0,0,0-22.57,0A16.26,16.26,0,0,0,315.57,159c.19,4.13,1.54,8.41,4.68,11.29a16.61,16.61,0,0,0,11.29,4.67Z"/><path class="cls-1" d="M233,23.13C177.7,26.38,119.37,50.58,91,84.82S51.35,164.93,51.15,209.41C51,250.26,59.6,291.5,78.93,327.49,111.1,387.39,173.62,430,241.16,437.83S379.41,418.33,424,367s61.64-125.34,43.83-191S397.75,55.12,333.16,33.89C289.9,19.67,278.47,23.13,233,23.13"/><path d="M233,18.25a250,250,0,0,0-68.83,14.09c-21,7.52-41.23,17.77-58.74,31.74-17,13.54-30,31.38-39.26,51-10.12,21.4-15.86,44.48-18.4,68a272.22,272.22,0,0,0,2.45,74.27,237.35,237.35,0,0,0,24.19,72,212.86,212.86,0,0,0,38.55,51.39,224.33,224.33,0,0,0,51.45,37.86,216.24,216.24,0,0,0,60.06,21.59,207.65,207.65,0,0,0,65.76,2.25,224.59,224.59,0,0,0,64.2-18.07,216.6,216.6,0,0,0,55.33-35.93,204.86,204.86,0,0,0,41.78-52.1A218.7,218.7,0,0,0,475,273.67a216,216,0,0,0,3.46-67.1,205.88,205.88,0,0,0-17.22-63,217.84,217.84,0,0,0-82.13-93.44c-18.54-11.61-38.75-19.75-59.79-25.59a181.38,181.38,0,0,0-28.55-5.65,212.94,212.94,0,0,0-25.38-1c-10.8.08-21.59.35-32.39.35-6.28,0-6.29,9.76,0,9.76,19.19,0,38.64-1.48,57.77.64,3.71.41,7.65,1,12,1.92,4.7.95,9.35,2.11,14,3.39a235.27,235.27,0,0,1,30.64,10.47,207,207,0,0,1,90.74,77.19,198.21,198.21,0,0,1,31.53,118C467.44,282.22,452,324.67,425.15,358s-64.21,57.05-105.21,68.53a202.38,202.38,0,0,1-123-4.11,212.37,212.37,0,0,1-97.33-71.61c-28.53-38-42.21-85.22-43.49-132.43-1.21-44.3,8-91.24,35.73-126.92,12.38-15.93,28.7-27.82,46.41-37.22a232.43,232.43,0,0,1,62.59-22A229.5,229.5,0,0,1,233,28a5,5,0,0,0,4.87-4.88A4.92,4.92,0,0,0,233,18.25Z"/><path d="M260.56,224a9.12,9.12,0,0,0,6.27-2.59,9.83,9.83,0,0,0,2.6-6.27,8.93,8.93,0,0,0-2.6-6.27,8.86,8.86,0,0,0-12.54,0,6.58,6.58,0,0,0-1.83,2.85,6.7,6.7,0,0,0-.77,3.42,9,9,0,0,0,2.6,6.27,9.23,9.23,0,0,0,6.27,2.59Z"/><path d="M331.91,143.17a88.59,88.59,0,0,0-8.84,4.52,23.51,23.51,0,0,0-4.45,3.5,15.36,15.36,0,0,0-3.41,5.5,13.55,13.55,0,0,0-.35,6.75,19.45,19.45,0,0,0,2.12,5.91,23,23,0,0,0,8.71,9,20.93,20.93,0,0,0,12.15,3,21.74,21.74,0,0,0,3.74-.6,22.84,22.84,0,0,0,3.48-1.32,20.94,20.94,0,0,0,5.16-3.49,21.37,21.37,0,0,0,6.4-10.54,17.89,17.89,0,0,0,.53-6.22,20.07,20.07,0,0,0-1.95-6.86,19,19,0,0,0-3.46-4.79,21,21,0,0,0-4.71-3.62A19.45,19.45,0,0,0,335,141.45a16.25,16.25,0,0,0-2.93.62,5.64,5.64,0,0,0-3.18,2.45,5.31,5.31,0,0,0,1.91,7.28,5.31,5.31,0,0,0,4.1.53,13,13,0,0,1,2.22-.52l-1.41.19a13.65,13.65,0,0,1,3.38,0l-1.42-.19a15.23,15.23,0,0,1,3.75,1l-1.27-.54a16.67,16.67,0,0,1,3.53,2.07l-1.08-.83a16.19,16.19,0,0,1,2.78,2.77l-.83-1.07a14.61,14.61,0,0,1,1.8,3.08l-.53-1.27a13.4,13.4,0,0,1,.87,3.15l-.19-1.41a13.79,13.79,0,0,1,0,3.63l.19-1.41a15.5,15.5,0,0,1-1.06,3.82l.53-1.28a16.66,16.66,0,0,1-2.11,3.6l.83-1.08a17,17,0,0,1-3.09,3.08l1.07-.83a16.58,16.58,0,0,1-3.45,2l1.27-.54a14.84,14.84,0,0,1-3.69,1l1.41-.19a15.19,15.19,0,0,1-3.87,0l1.42.19a17.24,17.24,0,0,1-4.06-1.13l1.27.53a18.17,18.17,0,0,1-4-2.32l1.08.84a19,19,0,0,1-3.27-3.26l.84,1.08a17.24,17.24,0,0,1-2.24-3.82l.54,1.27a14.44,14.44,0,0,1-1-3.52l.19,1.41a9,9,0,0,1,0-2.26L325.1,161a7.62,7.62,0,0,1,.53-1.88l-.54,1.27a9.35,9.35,0,0,1,1.13-1.9l-.83,1.07a14.29,14.29,0,0,1,2.43-2.36l-1.07.84c3.18-2.43,6.95-4,10.54-5.7a5.38,5.38,0,0,0,2.44-3.18,5.44,5.44,0,0,0-.54-4.1,5.35,5.35,0,0,0-3.18-2.45,6,6,0,0,0-4.1.54Z"/><path d="M180.59,142a22,22,0,0,0-11.34,3.45,22.45,22.45,0,0,0-8,8.64,19.51,19.51,0,0,0-1.9,5.6,21.57,21.57,0,0,0-.33,3.58,23.51,23.51,0,0,0,.39,3.55,21,21,0,0,0,5.26,10.31,19.35,19.35,0,0,0,9.85,5.88,18.8,18.8,0,0,0,12.71-1.72,19.82,19.82,0,0,0,8.28-8.07,16.8,16.8,0,0,0,1.94-5.5,18,18,0,0,0,.28-3.58c0-.82-.11-1.64-.21-2.45a35.16,35.16,0,0,0-1.08-5.86,18.29,18.29,0,0,0-2.17-4.91,12.07,12.07,0,0,0-4.28-4.15,10.38,10.38,0,0,0-6-1.25,13.6,13.6,0,0,0-3.42.71,5.76,5.76,0,0,0-3.18,2.45,5.31,5.31,0,0,0,1.91,7.28,5.22,5.22,0,0,0,4.1.53,9.8,9.8,0,0,1,1.93-.51l-1.42.19a6.05,6.05,0,0,1,1.7,0l-1.42-.19a4.93,4.93,0,0,1,1.25.34l-1.27-.54a5.54,5.54,0,0,1,1.2.7l-1.08-.83a7,7,0,0,1,1.21,1.22l-.83-1.08a11.45,11.45,0,0,1,1.37,2.41l-.54-1.28a22.8,22.8,0,0,1,1.46,5.75l-.19-1.42a19.35,19.35,0,0,1,.19,5l.19-1.41a13.23,13.23,0,0,1-.85,3.15l.53-1.27a14.39,14.39,0,0,1-1.84,3.12l.84-1.07a15.85,15.85,0,0,1-2.73,2.7l1.08-.83a15.72,15.72,0,0,1-3.32,1.93l1.27-.54a13.79,13.79,0,0,1-3.34.92l1.41-.19a12.57,12.57,0,0,1-3.3,0l1.41.19a13.32,13.32,0,0,1-3.28-.91l1.27.53a15,15,0,0,1-3.23-1.9l1.08.83a16.37,16.37,0,0,1-2.78-2.8l.83,1.07a16.82,16.82,0,0,1-2.1-3.57l.54,1.28a15.8,15.8,0,0,1-1.1-4l.19,1.42a14.15,14.15,0,0,1,0-3.62l-.19,1.42a15.55,15.55,0,0,1,1-3.72l-.53,1.28a16.4,16.4,0,0,1,2-3.48l-.83,1.08a18,18,0,0,1,3.23-3.24l-1.07.84a18.16,18.16,0,0,1,3.8-2.24l-1.27.54a17,17,0,0,1,4.25-1.17l-1.42.19a17.38,17.38,0,0,1,1.76-.14,5.57,5.57,0,0,0,3.77-1.55,5.33,5.33,0,0,0-3.77-9.09Z"/><path d="M325.44,293.76a146.83,146.83,0,0,0-27.51-11.55,110.76,110.76,0,0,0-25.86-4.52,96,96,0,0,0-24.15,1.84,97.92,97.92,0,0,0-22.32,7.56,108.23,108.23,0,0,0-19.28,11.82c-1.08.83-2.15,1.66-3.21,2.51a5.3,5.3,0,0,0-1.56,3.76,5.33,5.33,0,0,0,5.32,5.32l1.42-.19a5.25,5.25,0,0,0,2.34-1.37l1.62-1.27-1.07.83a109.29,109.29,0,0,1,18-11.35q2.67-1.33,5.42-2.49l-1.27.53a92.21,92.21,0,0,1,17.86-5.49c1.77-.35,3.54-.64,5.33-.88l-1.42.19a92.58,92.58,0,0,1,19.19-.54c1.9.14,3.79.35,5.67.6l-1.41-.19a112.59,112.59,0,0,1,23,5.71c2.28.82,4.54,1.71,6.77,2.65l-1.27-.54c4.43,1.87,8.77,4,13,6.25a5.58,5.58,0,0,0,4.1.53,5.44,5.44,0,0,0,3.18-2.44c1.3-2.48.7-5.88-1.91-7.28Z"/></g></svg>