<svg xmlns="http://www.w3.org/2000/svg" viewBox="0 0 245 238"><defs><style>.cls-1{fill:#fff;}</style></defs><title>sad-img-alt</title><g id="Layer_2" data-name="Layer 2"><path d="M156.77,90.85c4.23,0,8.29-3.72,8.09-8.09a8.23,8.23,0,0,0-8.09-8.1c-4.24,0-8.3,3.72-8.1,8.1a8.24,8.24,0,0,0,8.1,8.09Z"/><path class="cls-1" d="M106.77,13.87c-28,1.65-57.61,13.92-72,31.29s-20.1,40.63-20.21,63.19c-.09,20.72,4.29,41.64,14.09,59.89,16.32,30.38,48,52,82.29,56s70.12-9.88,92.72-35.93,31.26-63.57,22.23-96.86-35.53-61.32-68.29-72.09c-21.94-7.21-27.74-5.45-50.82-5.45"/><path d="M106.77,11.39A127,127,0,0,0,71.6,18.63,102.8,102.8,0,0,0,41.86,34.8C23.74,49.35,15.18,72.68,12.8,95.19c-2.66,25.09,1.61,51.54,13.5,73.9a111.22,111.22,0,0,0,45.8,45.39,107.22,107.22,0,0,0,64,12,112.29,112.29,0,0,0,60.58-27.59A108.78,108.78,0,0,0,222.38,74.63a110.28,110.28,0,0,0-41.64-47.15,114.41,114.41,0,0,0-30.31-12.93,98.59,98.59,0,0,0-27.24-3.34c-5.47,0-11,.18-16.42.18-3.19,0-3.19,4.95,0,4.95,9.65,0,19.42-.73,29,.3a85.64,85.64,0,0,1,13.3,2.68,120.07,120.07,0,0,1,15.48,5.27,104.84,104.84,0,0,1,46,38.87,100.69,100.69,0,0,1,16.24,59.85,102.46,102.46,0,0,1-75.39,95,102.69,102.69,0,0,1-62.82-1.9,107.68,107.68,0,0,1-49.43-36.3c-14.41-19.21-21.37-43-22.08-66.85-.68-22.6,4-46.57,18.13-64.77,6.2-8,14.43-14,23.28-18.72a121.2,121.2,0,0,1,48.27-13.44c3.16-.19,3.18-5.14,0-4.95Z"/><path d="M120.77,115.76a4.5,4.5,0,1,0-4.5-4.5,4.56,4.56,0,0,0,4.5,4.5Z"/><path d="M153.67,151.13c-8.37-4.49-17.52-7.65-27.07-8.15A49.17,49.17,0,0,0,103,147.75,58.22,58.22,0,0,0,91.63,155a2.7,2.7,0,0,0,0,3.81,2.76,2.76,0,0,0,3.81,0,6.65,6.65,0,0,0,.59-.46l-.17.13.29-.22,1.2-.89c.78-.55,1.56-1.09,2.37-1.61a51.31,51.31,0,0,1,4.82-2.77c.81-.41,1.63-.8,2.46-1.16l.33-.15-.23.1c.22-.09.44-.19.67-.27.44-.18.89-.36,1.35-.52a47.75,47.75,0,0,1,5.27-1.59c.92-.21,1.84-.4,2.77-.56l1.27-.2c.5-.07-.14,0-.18,0a1.72,1.72,0,0,1,.37-.05l.73-.08a47.13,47.13,0,0,1,5.82-.24c1,0,1.92.08,2.89.15l1.46.15.69.08c.14,0,.52,0-.13,0,.17,0,.33,0,.5.07a55.76,55.76,0,0,1,6.14,1.28,62.77,62.77,0,0,1,7.09,2.38l1,.39c.38.16-.38-.17,0,0l.53.23,1.83.83c1.29.61,2.56,1.26,3.82,1.93a2.7,2.7,0,1,0,2.72-4.66Z"/><path d="M65.74,94.29a32,32,0,0,1,27.59,0c4.62,2.2,8.69-4.7,4-6.91a40.7,40.7,0,0,0-35.66,0c-4.65,2.21-.59,9.11,4,6.91Z"/><path d="M149.16,92.11c7.86-7.39,19.32-7,26.81.7,3.6,3.7,9.25-2,5.65-5.65a26.83,26.83,0,0,0-38.11-.71c-3.76,3.54,1.9,9.18,5.65,5.66Z"/></g></svg>