<svg id="el12047byxmo1" xmlns="http://www.w3.org/2000/svg" xmlns:xlink="http://www.w3.org/1999/xlink" viewBox="0 0 1920 1018" shape-rendering="geometricPrecision" text-rendering="geometricPrecision"><g id="el12047byxmo2"><rect id="el12047byxmo3" width="422" height="1018" rx="0" ry="0" transform="matrix(1 0 0 1 752.00999999999999 0)" fill="rgb(0,0,0)" stroke="none" stroke-width="1"/></g><g id="el12047byxmo4" transform="matrix(1 0 0 1 0 -1)"><polygon id="el12047byxmo5" points="870.770000,450.920000 880.500000,498.490000 860.740000,498.490000 870.310000,450.920000 870.770000,450.920000" fill="rgb(0,0,0)" stroke="none" stroke-width="1"/><path id="el12047byxmo6" d="M871.630000,456.280000L847.460000,456.280000L822.680000,565.420000L840.920000,565.420000L846.550000,537.420000L872.690000,537.420000L878.470000,565.420000L897,565.420000ZM849.740000,521.490000L859.310000,473.920000L859.770000,473.920000L869.500000,521.490000Z" fill="rgb(255,255,255)" stroke="none" stroke-width="1"/><path id="el12047byxmo7" d="M1164.830000,508.110000L1164.830000,507.810000C1173.950000,503.710000,1178.970000,496.110000,1178.970000,484.710000C1178.970000,464.490000,1167.560000,456.280000,1142.640000,456.280000L1115.580000,456.280000L1115.580000,565.420000L1144,565.420000C1165.280000,565.420000,1181.540000,559.340000,1181.540000,534.100000C1181.550000,521.790000,1177.140000,512.520000,1164.830000,508.110000ZM1133.220000,472.400000L1143.220000,472.400000C1152.030000,472.400000,1160.690000,474.520000,1160.690000,486.230000C1160.690000,498.230000,1152.490000,501.580000,1143.220000,501.580000L1133.220000,501.580000ZM1145.070000,549.300000L1133.220000,549.300000L1133.220000,516.300000L1145.220000,516.300000C1157.080000,516.300000,1163.160000,521.170000,1163.160000,533.020000C1163.160000,544.870000,1157.690000,549.300000,1145.070000,549.300000Z" fill="rgb(255,255,255)" stroke="none" stroke-width="1"/><path id="el12047byxmo8" d="M1050.220000,456.280000L1026.060000,456.280000L1001.280000,565.420000L1019.520000,565.420000L1025.140000,537.420000L1051.290000,537.420000L1057.060000,565.420000L1075.610000,565.420000ZM1028.340000,521.490000L1037.910000,473.920000L1038.370000,473.920000L1048.090000,521.490000Z" fill="rgb(255,255,255)" stroke="none" stroke-width="1"/><path id="el12047byxmo9" d="M966.320000,537.140000C966.320000,556.140000,953.860000,566.780000,934.400000,566.780000C914.940000,566.780000,905.830000,557.360000,902.330000,537.780000L919.050000,534.890000C921.180000,545.990000,925.280000,551.610000,935.050000,551.610000C943.260000,551.610000,948.880000,547.050000,948.880000,538.540000C948.880000,514.540000,904.650000,517.420000,904.650000,482.460000C904.650000,465.590000,915.750000,454.950000,933.830000,454.950000C952.830000,454.950000,961.340000,465.590000,964.380000,482.150000L948.730000,485.150000C946.450000,475.880000,942.500000,470.150000,933.990000,470.150000C926.390000,470.150000,921.670000,474.400000,921.670000,481.390000C921.630000,504.160000,966.320000,501.430000,966.320000,537.140000Z" fill="rgb(255,255,255)" stroke="none" stroke-width="1"/><path id="el12047byxmo10" d="M345.250000,565.420000L345.250000,472.700000L322.760000,472.700000L322.760000,456.280000L385.680000,456.280000L385.680000,472.700000L363.190000,472.700000L363.190000,565.420000Z" fill="rgb(0,0,0)" stroke="none" stroke-width="1"/><path id="el12047byxmo11" d="M388.720000,510.850000C388.720000,474.680000,399.210000,454.920000,424.720000,454.920000C450.230000,454.920000,460.900000,474.680000,460.900000,510.850000C460.900000,546.720000,449.800000,566.780000,424.720000,566.780000C399.640000,566.780000,388.720000,546.720000,388.720000,510.850000ZM442.530000,510.850000C442.530000,482.430000,436.600000,470.570000,424.740000,470.570000C413.040000,470.570000,407.110000,482.430000,407.110000,510.850000C407.110000,540.340000,413.500000,551.280000,424.740000,551.280000C436.300000,551.280000,442.530000,540.340000,442.530000,510.850000Z" fill="rgb(0,0,0)" stroke="none" stroke-width="1"/><path id="el12047byxmo12" d="M475.670000,565.420000L475.670000,456.280000L500.740000,456.280000C530.840000,456.280000,544.670000,471.480000,544.670000,509.630000C544.670000,545.500000,532.510000,565.420000,500.440000,565.420000ZM501.810000,548.700000C518.980000,548.700000,526.280000,536.540000,526.280000,509.790000C526.280000,482.120000,518.220000,473,502.280000,473L494.080000,473L494.080000,548.700000Z" fill="rgb(0,0,0)" stroke="none" stroke-width="1"/><path id="el12047byxmo13" d="M607.600000,565.420000L601.820000,537.420000L575.680000,537.420000L570.060000,565.420000L551.820000,565.420000L576.590000,456.280000L600.760000,456.280000L626.140000,565.420000ZM578.870000,521.490000L598.630000,521.490000L588.900000,473.920000L588.450000,473.920000Z" fill="rgb(0,0,0)" stroke="none" stroke-width="1"/><path id="el12047byxmo14" d="M647,565.420000L647,521.340000L620.100000,456.280000L639.250000,456.280000L655.810000,500.670000L656.120000,500.670000L673.600000,456.280000L692.450000,456.280000L665.090000,521.340000L665.090000,565.420000Z" fill="rgb(0,0,0)" stroke="none" stroke-width="1"/><path id="el12047byxmo15" d="M764.920000,456.280000L752.460000,531.070000L752.150000,531.070000L739.390000,456.280000L721.300000,456.280000L743.190000,565.420000L761.430000,565.420000L767.010000,530.420000L767.010000,456.280000Z" fill="rgb(0,0,0)" stroke="none" stroke-width="1"/><polygon id="el12047byxmo16" points="825.870000,456.280000 804.140000,565.420000 786.050000,565.420000 773.590000,491.090000 773.280000,491.090000 767.010000,530.420000 767.010000,456.280000 782.710000,456.280000 795.020000,530.910000 795.320000,530.910000 808.090000,456.280000 825.870000,456.280000" fill="rgb(255,255,255)" stroke="none" stroke-width="1"/><path id="el12047byxmo17" d="M1243.710000,565.420000L1237.940000,537.420000L1211.800000,537.420000L1206.170000,565.420000L1187.930000,565.420000L1212.710000,456.280000L1236.870000,456.280000L1262.260000,565.420000ZM1215,521.490000L1234.760000,521.490000L1225,473.920000L1224.540000,473.920000Z" fill="rgb(0,0,0)" stroke="none" stroke-width="1"/><path id="el12047byxmo18" d="M1273.810000,565.420000L1273.810000,456.280000L1298.890000,456.280000C1328.990000,456.280000,1342.820000,471.480000,1342.820000,509.630000C1342.820000,545.500000,1330.660000,565.420000,1298.590000,565.420000ZM1300,548.700000C1317.180000,548.700000,1324.470000,536.540000,1324.470000,509.790000C1324.470000,482.120000,1316.420000,473,1300.470000,473L1292.260000,473L1292.260000,548.700000Z" fill="rgb(0,0,0)" stroke="none" stroke-width="1"/><path id="el12047byxmo19" d="M1386,565.420000L1386,456.280000L1411.080000,456.280000C1441.170000,456.280000,1455,471.480000,1455,509.630000C1455,545.500000,1442.840000,565.420000,1410.770000,565.420000ZM1412.140000,548.700000C1429.310000,548.700000,1436.610000,536.540000,1436.610000,509.790000C1436.610000,482.120000,1428.550000,473,1412.610000,473L1404.400000,473L1404.400000,548.700000Z" fill="rgb(0,0,0)" stroke="none" stroke-width="1"/><path id="el12047byxmo20" d="M1517.920000,565.420000L1512.140000,537.420000L1486,537.420000L1480.380000,565.420000L1462.140000,565.420000L1486.910000,456.280000L1511.080000,456.280000L1536.460000,565.420000ZM1489.190000,521.490000L1509,521.490000L1499.280000,473.920000L1498.820000,473.920000Z" fill="rgb(0,0,0)" stroke="none" stroke-width="1"/><path id="el12047byxmo21" d="M1557.290000,565.420000L1557.290000,521.340000L1530.390000,456.280000L1549.540000,456.280000L1566.110000,500.670000L1566.410000,500.670000L1583.890000,456.280000L1602.740000,456.280000L1575.380000,521.340000L1575.380000,565.420000Z" fill="rgb(0,0,0)" stroke="none" stroke-width="1"/><path id="el12047byxmo22" d="M345.250000,564.420000L345.250000,471.700000L322.760000,471.700000L322.760000,455.280000L385.680000,455.280000L385.680000,471.700000L363.190000,471.700000L363.190000,564.420000Z" fill="rgb(0,0,0)" stroke="none" stroke-width="1"/><path id="el12047byxmo23" d="M388.720000,509.850000C388.720000,473.680000,399.210000,453.920000,424.720000,453.920000C450.230000,453.920000,460.900000,473.680000,460.900000,509.850000C460.900000,545.720000,449.800000,565.780000,424.720000,565.780000C399.640000,565.780000,388.720000,545.720000,388.720000,509.850000ZM442.530000,509.850000C442.530000,481.430000,436.600000,469.570000,424.740000,469.570000C413.040000,469.570000,407.110000,481.430000,407.110000,509.850000C407.110000,539.340000,413.500000,550.280000,424.740000,550.280000C436.300000,550.280000,442.530000,539.340000,442.530000,509.850000Z" fill="rgb(0,0,0)" stroke="none" stroke-width="1"/><path id="el12047byxmo24" d="M475.670000,564.420000L475.670000,455.280000L500.740000,455.280000C530.840000,455.280000,544.670000,470.480000,544.670000,508.630000C544.670000,544.500000,532.510000,564.420000,500.440000,564.420000ZM501.810000,547.700000C518.980000,547.700000,526.280000,535.540000,526.280000,508.790000C526.280000,481.120000,518.220000,472,502.280000,472L494.080000,472L494.080000,547.700000Z" fill="rgb(0,0,0)" stroke="none" stroke-width="1"/><path id="el12047byxmo25" d="M607.600000,564.420000L601.820000,536.420000L575.680000,536.420000L570.060000,564.420000L551.820000,564.420000L576.590000,455.280000L600.760000,455.280000L626.140000,564.420000ZM578.870000,520.490000L598.630000,520.490000L588.900000,472.920000L588.450000,472.920000Z" fill="rgb(0,0,0)" stroke="none" stroke-width="1"/><path id="el12047byxmo26" d="M647,564.420000L647,520.340000L620.100000,455.280000L639.250000,455.280000L655.810000,499.670000L656.120000,499.670000L673.600000,455.280000L692.450000,455.280000L665.090000,520.340000L665.090000,564.420000Z" fill="rgb(0,0,0)" stroke="none" stroke-width="1"/><path id="el12047byxmo27" d="M764.920000,455.280000L752.460000,530.060000L752.150000,530.060000L739.390000,455.280000L721.300000,455.280000L743.190000,564.420000L761.430000,564.420000L767.010000,529.420000L767.010000,455.280000Z" fill="rgb(0,0,0)" stroke="none" stroke-width="1"/><path id="el12047byxmo28" d="M1243.710000,564.420000L1237.940000,536.420000L1211.800000,536.420000L1206.170000,564.420000L1187.930000,564.420000L1212.710000,455.280000L1236.870000,455.280000L1262.260000,564.420000ZM1215,520.490000L1234.760000,520.490000L1225,472.920000L1224.540000,472.920000Z" fill="rgb(0,0,0)" stroke="none" stroke-width="1"/><path id="el12047byxmo29" d="M1273.810000,564.420000L1273.810000,455.280000L1298.890000,455.280000C1328.990000,455.280000,1342.820000,470.480000,1342.820000,508.630000C1342.820000,544.500000,1330.660000,564.420000,1298.590000,564.420000ZM1300,547.700000C1317.180000,547.700000,1324.470000,535.540000,1324.470000,508.790000C1324.470000,481.120000,1316.420000,472,1300.470000,472L1292.260000,472L1292.260000,547.700000Z" fill="rgb(0,0,0)" stroke="none" stroke-width="1"/><path id="el12047byxmo30" d="M1386,564.420000L1386,455.280000L1411.080000,455.280000C1441.170000,455.280000,1455,470.480000,1455,508.630000C1455,544.500000,1442.840000,564.420000,1410.770000,564.420000ZM1412.140000,547.700000C1429.310000,547.700000,1436.610000,535.540000,1436.610000,508.790000C1436.610000,481.120000,1428.550000,472,1412.610000,472L1404.400000,472L1404.400000,547.700000Z" fill="rgb(0,0,0)" stroke="none" stroke-width="1"/><path id="el12047byxmo31" d="M1517.920000,564.420000L1512.140000,536.420000L1486,536.420000L1480.380000,564.420000L1462.140000,564.420000L1486.910000,455.280000L1511.080000,455.280000L1536.460000,564.420000ZM1489.190000,520.490000L1509,520.490000L1499.280000,472.920000L1498.820000,472.920000Z" fill="rgb(0,0,0)" stroke="none" stroke-width="1"/><path id="el12047byxmo32" d="M1557.290000,564.420000L1557.290000,520.340000L1530.390000,455.280000L1549.540000,455.280000L1566.110000,499.670000L1566.410000,499.670000L1583.890000,455.280000L1602.740000,455.280000L1575.380000,520.340000L1575.380000,564.420000Z" fill="rgb(0,0,0)" stroke="none" stroke-width="1"/></g><g id="el12047byxmo33" transform="matrix(0.90138617644237 -0.43301612085302 0.43301612085302 0.90138617644237 -107.01492682499429 486.30252252500009)"><polygon id="el12047byxmo34" points="895.190000,398.420000 882.210000,445.210000 864.620000,436.220000 894.780000,398.210000 895.190000,398.420000" fill="rgb(0,0,0)" stroke="none" stroke-width="1"/><path id="el12047byxmo35" d="M893.520000,403.580000L871.990000,392.580000L800.280000,478.500000L816.520000,486.790000L834.260000,464.450000L857.540000,476.340000L850,503.890000L866.510000,512.320000ZM844.360000,451.700000L874.520000,413.700000L874.930000,413.910000L861.930000,460.700000Z" fill="rgb(255,255,255)" stroke="none" stroke-width="1"/><path id="el12047byxmo36" d="M1131,583.120000L1131.140000,582.850000C1141.140000,583.350000,1149.050000,578.850000,1154.240000,568.720000C1163.440000,550.720000,1157.010000,538.210000,1134.820000,526.870000L1110.720000,514.560000L1061.070000,611.750000L1086.390000,624.690000C1105.390000,634.370000,1122.590000,636.350000,1134.070000,613.870000C1139.710000,602.910000,1140,592.650000,1131,583.120000ZM1119.100000,536.940000L1128.030000,541.500000C1135.880000,545.500000,1142.620000,551.340000,1137.300000,561.770000C1131.840000,572.450000,1123.010000,571.710000,1114.760000,567.490000L1105.820000,562.930000ZM1094.670000,610.810000L1084.120000,605.420000L1099.120000,576.050000L1109.810000,581.510000C1120.370000,586.910000,1123.570000,594.010000,1118.170000,604.510000C1112.770000,615.010000,1106,616.550000,1094.710000,610.810000Z" fill="rgb(255,255,255)" stroke="none" stroke-width="1"/><path id="el12047byxmo37" d="M1052.560000,484.830000L1031.040000,473.830000L959.330000,559.750000L975.570000,568.040000L993.300000,545.700000L1016.580000,557.600000L1009,585.130000L1025.520000,593.570000ZM1003.410000,532.940000L1033.570000,494.940000L1033.980000,495.140000L1020.980000,541.930000Z" fill="rgb(255,255,255)" stroke="none" stroke-width="1"/><path id="el12047byxmo38" d="M941.060000,518.670000C932.410000,535.590000,916.480000,539.390000,899.150000,530.540000C881.820000,521.690000,878,509.160000,883.790000,490.100000L900,495.100000C896.850000,505.960000,897.940000,512.830000,906.610000,517.250000C913.920000,520.990000,921,519.480000,924.870000,511.910000C935.790000,490.550000,895.090000,473,911,441.870000C918.680000,426.870000,933.400000,422.420000,949.500000,430.650000C966.420000,439.290000,969.160000,452.650000,964.330000,468.770000L949,464.360000C951.190000,455.060000,950.300000,448.130000,942.720000,444.260000C935.950000,440.800000,929.810000,442.440000,926.630000,448.660000C916.260000,469,957.300000,486.870000,941.060000,518.670000Z" fill="rgb(255,255,255)" stroke="none" stroke-width="1"/><path id="el12047byxmo39" d="M375.110000,261.310000L417.290000,178.750000L397.290000,168.510000L404.760000,153.900000L460.760000,182.520000L453.290000,197.140000L433.290000,186.910000L391.120000,269.470000Z" fill="rgb(0,0,0)" stroke="none" stroke-width="1"/><path id="el12047byxmo40" d="M438.650000,232.500000C455.110000,200.280000,473.430000,187.500000,496.170000,199.070000C518.910000,210.640000,519.400000,233.130000,502.940000,265.340000C486.630000,297.280000,467.620000,310.100000,445.280000,298.690000C422.940000,287.280000,422.330000,264.440000,438.650000,232.500000ZM486.570000,257C499.500000,231.690000,499.570000,218.440000,489.050000,213C478.530000,207.560000,467.960000,215.540000,455.050000,240.850000C441.630000,267.110000,442.340000,279.760000,452.360000,284.850000C462.620000,290.140000,473.150000,283.230000,486.570000,257Z" fill="rgb(0,0,0)" stroke="none" stroke-width="1"/><path id="el12047byxmo41" d="M491.250000,320.640000L540.900000,223.460000L563.230000,234.860000C590.030000,248.560000,595.430000,268.380000,578.080000,302.360000C561.760000,334.300000,541.870000,346.500000,513.320000,331.910000ZM522.140000,317.640000C537.430000,325.460000,549.460000,317.950000,561.630000,294.130000C574.220000,269.490000,571.190000,257.700000,556.980000,250.440000L549.670000,246.710000L515.240000,314.120000Z" fill="rgb(0,0,0)" stroke="none" stroke-width="1"/><path id="el12047byxmo42" d="M608.740000,380.660000L616.320000,353.130000L593,341.230000L575.270000,363.580000L559.030000,355.280000L630.740000,269.370000L652.260000,280.370000L625.260000,389.110000ZM603.140000,328.470000L620.740000,337.470000L633.740000,290.680000L633.330000,290.470000Z" fill="rgb(0,0,0)" stroke="none" stroke-width="1"/><path id="el12047byxmo43" d="M643.810000,398.570000L663.860000,359.320000L669.490000,289.150000L686.550000,297.860000L681.110000,344.920000L681.380000,345.060000L717.140000,313.490000L733.920000,322.060000L679.920000,367.550000L659.910000,406.800000Z" fill="rgb(0,0,0)" stroke="none" stroke-width="1"/><path id="el12047byxmo44" d="M798.490000,355L753.370000,416L753.090000,415.860000L775.750000,343.450000L759.640000,335.220000L729.490000,442.350000L745.730000,450.640000L766.620000,422L800.350000,356Z" fill="rgb(0,0,0)" stroke="none" stroke-width="1"/><polygon id="el12047byxmo45" points="852.770000,382.770000 783.760000,470.070000 767.660000,461.840000 790.370000,389.980000 790.100000,389.840000 766.620000,422.010000 800.350000,355.990000 814.330000,363.130000 791.340000,435.190000 791.610000,435.330000 836.930000,374.680000 852.770000,382.770000" fill="rgb(255,255,255)" stroke="none" stroke-width="1"/><path id="el12047byxmo46" d="M1175.230000,670L1182.800000,642.470000L1159.520000,630.580000L1141.790000,653L1125.550000,644.700000L1197.260000,558.790000L1218.780000,569.790000L1191.780000,678.530000ZM1169.630000,617.810000L1187.220000,626.810000L1200.220000,580.020000L1199.820000,579.820000Z" fill="rgb(0,0,0)" stroke="none" stroke-width="1"/><path id="el12047byxmo47" d="M1202,683.730000L1251.640000,586.550000L1274,598C1300.800000,611.690000,1306.200000,631.520000,1288.850000,665.490000C1272.530000,697.430000,1252.640000,709.630000,1224.080000,695.040000ZM1232.890000,680.730000C1248.180000,688.540000,1260.210000,681.030000,1272.380000,657.210000C1284.960000,632.570000,1281.940000,620.790000,1267.730000,613.530000L1260.420000,609.790000L1226,677.210000Z" fill="rgb(0,0,0)" stroke="none" stroke-width="1"/><path id="el12047byxmo48" d="M1301.920000,734.760000L1351.570000,637.580000L1373.900000,649C1400.700000,662.690000,1406.110000,682.520000,1388.750000,716.490000C1372.430000,748.430000,1352.550000,760.630000,1323.990000,746.040000ZM1332.810000,731.760000C1348.110000,739.570000,1360.130000,732.060000,1372.300000,708.240000C1384.890000,683.600000,1381.860000,671.820000,1367.650000,664.560000L1360.340000,660.820000L1325.910000,728.230000Z" fill="rgb(0,0,0)" stroke="none" stroke-width="1"/><path id="el12047byxmo49" d="M1419.420000,794.780000L1426.990000,767.250000L1403.710000,755.360000L1386,777.700000L1369.760000,769.410000L1441.470000,683.490000L1462.990000,694.490000L1435.990000,803.220000ZM1413.820000,742.600000L1431.410000,751.600000L1444.410000,704.800000L1444,704.600000Z" fill="rgb(0,0,0)" stroke="none" stroke-width="1"/><path id="el12047byxmo50" d="M1454.480000,812.690000L1474.480000,773.440000L1480.110000,703.270000L1497.170000,711.980000L1491.780000,759L1492.050000,759.140000L1527.810000,727.570000L1544.590000,736.140000L1490.640000,781.630000L1470.580000,820.880000Z" fill="rgb(0,0,0)" stroke="none" stroke-width="1"/><path id="el12047byxmo51" d="M375.570000,260.420000L417.750000,177.860000L397.750000,167.620000L405.180000,153L461.180000,181.630000L453.710000,196.250000L433.710000,186.020000L391.530000,268.580000Z" fill="rgb(0,0,0)" stroke="none" stroke-width="1"/><path id="el12047byxmo52" d="M439.100000,231.610000C455.560000,199.390000,473.890000,186.610000,496.630000,198.180000C519.370000,209.750000,519.850000,232.240000,503.400000,264.450000C487.080000,296.390000,468.070000,309.210000,445.740000,297.800000C423.410000,286.390000,422.790000,263.550000,439.100000,231.610000ZM487,256.080000C499.930000,230.770000,500,217.520000,489.490000,212.080000C478.980000,206.640000,468.390000,214.620000,455.490000,239.930000C442.080000,266.190000,442.790000,278.840000,452.800000,283.930000C463.080000,289.250000,473.610000,282.340000,487,256.080000Z" fill="rgb(0,0,0)" stroke="none" stroke-width="1"/><path id="el12047byxmo53" d="M491.710000,319.750000L541.350000,222.570000L563.690000,234C590.490000,247.690000,595.890000,267.520000,578.530000,301.500000C562.220000,333.440000,542.330000,345.640000,513.770000,331.050000ZM522.590000,316.750000C537.890000,324.570000,549.920000,317.060000,562.090000,293.240000C574.670000,268.600000,571.650000,256.810000,557.430000,249.550000L550.120000,245.820000L515.690000,313.230000Z" fill="rgb(0,0,0)" stroke="none" stroke-width="1"/><path id="el12047byxmo54" d="M609.200000,379.770000L616.780000,352.240000L593.500000,340.340000L575.770000,362.690000L559.520000,354.390000L631.230000,268.480000L652.750000,279.480000L625.750000,388.210000ZM603.600000,327.580000L621.190000,336.580000L634.190000,289.790000L633.790000,289.580000Z" fill="rgb(0,0,0)" stroke="none" stroke-width="1"/><path id="el12047byxmo55" d="M644.260000,397.680000L664.260000,358.430000L670,288.260000L687,297L681.570000,344L681.840000,344.140000L717.590000,312.570000L734.380000,321.140000L680.380000,366.620000L660.380000,405.880000Z" fill="rgb(0,0,0)" stroke="none" stroke-width="1"/><path id="el12047byxmo56" d="M798.940000,354.150000L753.830000,415.070000L753.550000,414.930000L776.210000,342.530000L760.100000,334.300000L729.940000,441.450000L746.190000,449.750000L767.080000,421.120000L800.800000,355.120000Z" fill="rgb(0,0,0)" stroke="none" stroke-width="1"/><path id="el12047byxmo57" d="M1175.680000,669.150000L1183.260000,641.620000L1160,629.720000L1142.270000,652.070000L1126.030000,643.770000L1197.730000,557.860000L1219.250000,568.860000L1192.250000,677.600000ZM1170.080000,616.960000L1187.680000,625.960000L1200.680000,579.170000L1200.270000,578.960000Z" fill="rgb(0,0,0)" stroke="none" stroke-width="1"/><path id="el12047byxmo58" d="M1202.480000,682.840000L1252.130000,585.660000L1274.460000,597.070000C1301.260000,610.760000,1306.670000,630.580000,1289.310000,664.560000C1272.990000,696.500000,1253.110000,708.700000,1224.550000,694.110000ZM1233.370000,679.840000C1248.670000,687.650000,1260.690000,680.140000,1272.860000,656.320000C1285.450000,631.680000,1282.420000,619.900000,1268.210000,612.640000L1260.900000,608.900000L1226.470000,676.310000Z" fill="rgb(0,0,0)" stroke="none" stroke-width="1"/><path id="el12047byxmo59" d="M1302.380000,733.870000L1352,636.690000L1374.330000,648.100000C1401.130000,661.790000,1406.530000,681.610000,1389.180000,715.590000C1372.860000,747.530000,1352.970000,759.730000,1324.410000,745.140000ZM1333.270000,730.870000C1348.560000,738.680000,1360.590000,731.170000,1372.760000,707.350000C1385.340000,682.710000,1382.320000,670.930000,1368.110000,663.670000L1360.800000,659.930000L1326.360000,727.340000Z" fill="rgb(0,0,0)" stroke="none" stroke-width="1"/><path id="el12047byxmo60" d="M1419.870000,793.890000L1427.450000,766.360000L1404.170000,754.470000L1386.440000,776.810000L1370.200000,768.520000L1441.900000,682.600000L1463.430000,693.600000L1436.430000,802.330000ZM1414.270000,741.710000L1431.870000,750.710000L1444.870000,703.920000L1444.460000,703.720000Z" fill="rgb(0,0,0)" stroke="none" stroke-width="1"/><path id="el12047byxmo61" d="M1454.930000,811.800000L1474.930000,772.550000L1480.570000,702.380000L1497.620000,711.090000L1492.190000,758.150000L1492.460000,758.290000L1528.210000,726.720000L1545,735.290000L1491,780.780000L1471,820Z" fill="rgb(0,0,0)" stroke="none" stroke-width="1"/></g><g id="el12047byxmo62" transform="matrix(0.87156392373082 0.49028188509361 -0.49028188509361 0.87156392373082 342.13993710500188 -391.44915929500320)"><polygon id="el12047byxmo63" points="870.220000,482.700000 901.760000,519.610000 884.470000,529.180000 869.820000,482.920000 870.220000,482.700000" fill="rgb(0,0,0)" stroke="none" stroke-width="1"/><path id="el12047byxmo64" d="M873.570000,487L852.420000,498.700000L883.580000,606.200000L899.580000,597.360000L890.960000,570.170000L913.830000,557.510000L932.430000,579.180000L948.650000,570.180000ZM886,554.630000L871.340000,508.370000L871.740000,508.150000L903.280000,545.060000Z" fill="rgb(255,255,255)" stroke="none" stroke-width="1"/><path id="el12047byxmo65" d="M1155.200000,390.360000L1155.060000,390.100000C1161.060000,382.100000,1161.760000,373.020000,1156.250000,363.040000C1146.460000,345.350000,1132.500000,343.690000,1110.690000,355.760000L1087,368.860000L1139.840000,464.350000L1164.710000,450.590000C1183.330000,440.280000,1194.620000,427.090000,1182.400000,405.010000C1176.460000,394.240000,1168.110000,388.260000,1155.200000,390.360000ZM1110.260000,374.420000L1119.030000,369.560000C1126.740000,365.300000,1135.340000,362.960000,1141.030000,373.210000C1146.840000,383.710000,1141.290000,390.610000,1133.180000,395.100000L1124.400000,399.950000ZM1157.860000,435.970000L1147.490000,441.710000L1131.490000,412.850000L1142,407C1152.380000,401.260000,1160,402.580000,1165.790000,412.940000C1171.580000,423.300000,1168.900000,429.860000,1157.860000,436Z" fill="rgb(255,255,255)" stroke="none" stroke-width="1"/><path id="el12047byxmo66" d="M1029.830000,400.500000L1008.690000,412.200000L1039.850000,519.690000L1055.850000,510.860000L1047.220000,483.670000L1070.060000,471L1088.650000,492.680000L1104.890000,483.680000ZM1042.260000,468.150000L1027.600000,421.900000L1028,421.670000L1059.540000,458.590000Z" fill="rgb(255,255,255)" stroke="none" stroke-width="1"/><path id="el12047byxmo67" d="M995.570000,511.870000C1004.770000,528.500000,999.020000,543.870000,981.990000,553.260000C964.960000,562.650000,952.430000,558.850000,939.870000,543.390000L953.100000,532.770000C960.340000,541.450000,966.650000,544.380000,975.160000,539.670000C982.350000,535.670000,985.060000,528.980000,980.940000,521.540000C969.310000,500.540000,932.010000,524.470000,915.080000,493.880000C906.920000,479.120000,911.480000,464.440000,927.300000,455.680000C943.920000,446.490000,956.520000,451.680000,967.200000,464.680000L955,474.930000C948.520000,467.930000,942.270000,464.790000,934.830000,468.930000C928.180000,472.610000,926.100000,478.610000,929.490000,484.730000C940.500000,504.660000,978.280000,480.630000,995.570000,511.870000Z" fill="rgb(255,255,255)" stroke="none" stroke-width="1"/><path id="el12047byxmo68" d="M465.840000,837.320000L421,756.190000L401.320000,767.080000L393.370000,752.720000L448.430000,722.250000L456.380000,736.620000L436.690000,747.510000L481.580000,828.630000Z" fill="rgb(0,0,0)" stroke="none" stroke-width="1"/><path id="el12047byxmo69" d="M477.460000,768.530000C459.940000,736.870000,459.550000,714.530000,481.890000,702.140000C504.230000,689.750000,523.110000,701.920000,540.630000,733.570000C558,765,558,787.880000,536.060000,800C514.120000,812.120000,494.820000,799.910000,477.460000,768.530000ZM524.540000,742.470000C510.770000,717.610000,499.850000,710.100000,489.470000,715.840000C479.090000,721.580000,479.790000,734.750000,493.550000,759.620000C507.830000,785.420000,518.710000,791.910000,528.550000,786.460000C538.660000,780.870000,538.810000,768.270000,524.540000,742.470000Z" fill="rgb(0,0,0)" stroke="none" stroke-width="1"/><path id="el12047byxmo70" d="M580,774.170000L527.160000,678.690000L549.100000,666.540000C575.440000,651.970000,594.900000,658.540000,613.370000,691.960000C630.740000,723.340000,629.740000,746.650000,601.680000,762.180000ZM594.780000,746.890000C609.780000,738.570000,610.300000,724.400000,597.350000,700.990000C583.960000,676.790000,572.490000,672.710000,558.530000,680.440000L551.350000,684.440000L588,750.640000Z" fill="rgb(0,0,0)" stroke="none" stroke-width="1"/><path id="el12047byxmo71" d="M695.390000,710.300000L676.790000,688.620000L653.920000,701.280000L662.540000,728.470000L646.540000,737.300000L615.420000,629.820000L636.570000,618.120000L711.570000,701.320000ZM649,685.770000L666.280000,676.200000L634.740000,639.290000L634.340000,639.510000Z" fill="rgb(0,0,0)" stroke="none" stroke-width="1"/><path id="el12047byxmo72" d="M729.840000,691.230000L708.500000,652.670000L653.500000,608.770000L670.260000,599.500000L706.260000,630.310000L706.530000,630.160000L700.330000,582.870000L716.820000,573.740000L724.380000,643.910000L745.720000,682.480000Z" fill="rgb(0,0,0)" stroke="none" stroke-width="1"/><path id="el12047byxmo73" d="M780.200000,538.640000L805.510000,610.110000L805.230000,610.260000L757.860000,551L742,559.760000L814,644.650000L830,635.820000L817.930000,602.490000L782,537.620000Z" fill="rgb(0,0,0)" stroke="none" stroke-width="1"/><polygon id="el12047byxmo74" points="833.530000,509.130000 867.360000,615.140000 851.530000,623.900000 804.640000,564.900000 804.370000,565.050000 817.920000,602.500000 782.030000,537.620000 795.760000,530.020000 842.670000,589.360000 842.930000,589.220000 817.970000,517.740000 833.530000,509.130000" fill="rgb(255,255,255)" stroke="none" stroke-width="1"/><path id="el12047byxmo75" d="M1252,402.310000L1233.410000,380.630000L1210.530000,393.290000L1219.150000,420.480000L1203.200000,429.320000L1172,321.830000L1193.140000,310.130000L1268.140000,393.330000ZM1205.600000,377.780000L1222.890000,368.220000L1191.340000,331.300000L1190.940000,331.520000Z" fill="rgb(0,0,0)" stroke="none" stroke-width="1"/><path id="el12047byxmo76" d="M1278.310000,387.740000L1225.470000,292.250000L1247.410000,280.110000C1273.740000,265.540000,1293.210000,272.110000,1311.680000,305.520000C1329.040000,336.900000,1328.050000,360.210000,1299.980000,375.740000ZM1293.090000,360.450000C1308.090000,352.130000,1308.610000,337.960000,1295.660000,314.560000C1282.260000,290.350000,1270.800000,286.270000,1256.840000,294L1249.660000,298L1286.300000,364.230000Z" fill="rgb(0,0,0)" stroke="none" stroke-width="1"/><path id="el12047byxmo77" d="M1376.460000,333.420000L1323.620000,237.940000L1345.560000,225.790000C1371.900000,211.220000,1391.360000,217.790000,1409.830000,251.210000C1427.190000,282.590000,1426.200000,305.900000,1398.130000,321.430000ZM1391.240000,306.140000C1406.240000,297.820000,1406.760000,283.650000,1393.810000,260.240000C1380.420000,236,1369,232,1355,239.690000L1347.820000,243.690000L1384.460000,309.920000Z" fill="rgb(0,0,0)" stroke="none" stroke-width="1"/><path id="el12047byxmo78" d="M1491.900000,269.550000L1473.300000,247.870000L1450.430000,260.530000L1459.050000,287.720000L1443.050000,296.550000L1411.890000,189.070000L1433.030000,177.370000L1508.030000,260.570000ZM1445.490000,245L1462.780000,235.430000L1431.240000,198.520000L1430.840000,198.740000Z" fill="rgb(0,0,0)" stroke="none" stroke-width="1"/><path id="el12047byxmo79" d="M1526.350000,250.480000L1505,211.920000L1450,168L1466.750000,158.730000L1502.750000,189.540000L1503.010000,189.390000L1496.820000,142.100000L1513.310000,132.970000L1520.870000,203.140000L1542.210000,241.710000Z" fill="rgb(0,0,0)" stroke="none" stroke-width="1"/><path id="el12047byxmo80" d="M465.360000,836.440000L420.470000,755.320000L400.780000,766.210000L392.840000,751.850000L447.890000,721.380000L455.840000,735.740000L436.160000,746.630000L481.050000,827.760000Z" fill="rgb(0,0,0)" stroke="none" stroke-width="1"/><path id="el12047byxmo81" d="M477,767.650000C459.490000,736,459.100000,713.650000,481.440000,701.270000C503.780000,688.890000,522.660000,701.040000,540.170000,732.690000C557.540000,764.080000,557.550000,787.010000,535.600000,799.150000C513.650000,811.290000,494.340000,799,477,767.650000ZM524.080000,741.650000C510.290000,716.730000,499.360000,709.230000,489,715C478.640000,720.770000,479.310000,733.910000,493.080000,758.780000C507.350000,784.580000,518.240000,791.060000,528.080000,785.610000C538.170000,780,538.330000,767.400000,524.050000,741.600000Z" fill="rgb(0,0,0)" stroke="none" stroke-width="1"/><path id="el12047byxmo82" d="M579.470000,773.300000L526.630000,677.810000L548.570000,665.670000C574.900000,651.100000,594.360000,657.670000,612.830000,691.080000C630.200000,722.470000,629.200000,745.780000,601.140000,761.300000ZM594.240000,746C609.240000,737.690000,609.770000,723.520000,596.820000,700.110000C583.420000,675.910000,572,671.840000,558,679.560000L550.820000,683.560000L587.470000,749.790000Z" fill="rgb(0,0,0)" stroke="none" stroke-width="1"/><path id="el12047byxmo83" d="M694.900000,709.420000L676.310000,687.750000L653.430000,700.400000L662.050000,727.600000L646.100000,736.430000L614.940000,629L636.080000,617.300000L711.080000,700.490000ZM648.500000,684.890000L665.790000,675.330000L634.240000,638.410000L633.840000,638.630000Z" fill="rgb(0,0,0)" stroke="none" stroke-width="1"/><path id="el12047byxmo84" d="M729.350000,690.360000L708,651.790000L653,607.900000L669.760000,598.620000L705.760000,629.440000L706.020000,629.290000L699.790000,582L716.280000,572.880000L723.840000,643L745.180000,681.570000Z" fill="rgb(0,0,0)" stroke="none" stroke-width="1"/><path id="el12047byxmo85" d="M779.710000,537.760000L805,609.220000L804.730000,609.370000L757.360000,550.120000L741.530000,558.880000L813.530000,643.780000L829.530000,634.950000L817.470000,601.620000L781.570000,536.750000Z" fill="rgb(0,0,0)" stroke="none" stroke-width="1"/><path id="el12047byxmo86" d="M1251.490000,401.430000L1232.890000,379.760000L1210,392.420000L1218.620000,419.610000L1202.620000,428.440000L1171.520000,321L1192.670000,309.300000L1267.670000,392.500000ZM1205.090000,376.910000L1222.370000,367.340000L1190.830000,330.420000L1190.430000,330.650000Z" fill="rgb(0,0,0)" stroke="none" stroke-width="1"/><path id="el12047byxmo87" d="M1277.820000,386.860000L1225,291.370000L1246.940000,279.230000C1273.270000,264.660000,1292.730000,271.230000,1311.200000,304.640000C1328.570000,336.030000,1327.570000,359.340000,1299.510000,374.870000ZM1292.600000,359.570000C1307.600000,351.260000,1308.130000,337.090000,1295.170000,313.680000C1281.780000,289.480000,1270.320000,285.400000,1256.350000,293.120000L1249.170000,297.120000L1285.820000,363.350000Z" fill="rgb(0,0,0)" stroke="none" stroke-width="1"/><path id="el12047byxmo88" d="M1376,332.550000L1323.170000,237.060000L1345.110000,224.920000C1371.440000,210.350000,1390.900000,216.920000,1409.370000,250.330000C1426.740000,281.720000,1425.740000,305.030000,1397.680000,320.550000ZM1390.780000,305.260000C1405.780000,296.950000,1406.310000,282.780000,1393.360000,259.370000C1379.960000,235.160000,1368.500000,231.090000,1354.530000,238.810000L1347.350000,242.810000L1384,309Z" fill="rgb(0,0,0)" stroke="none" stroke-width="1"/><path id="el12047byxmo89" d="M1491.410000,268.670000L1472.820000,247L1449.940000,259.650000L1458.560000,286.850000L1442.560000,295.680000L1411.440000,188.200000L1432.590000,176.500000L1507.640000,259.690000ZM1445,244.140000L1462.290000,234.580000L1430.740000,197.660000L1430.340000,197.880000Z" fill="rgb(0,0,0)" stroke="none" stroke-width="1"/><path id="el12047byxmo90" d="M1525.860000,249.610000L1504.520000,211L1449.520000,167.110000L1466.280000,157.830000L1502.280000,188.650000L1502.550000,188.500000L1496.360000,141.200000L1512.850000,132.080000L1520.400000,202.240000L1541.750000,240.810000Z" fill="rgb(0,0,0)" stroke="none" stroke-width="1"/></g><script><![CDATA[!function(t,n){"object"==typeof exports&&"undefined"!=typeof module?module.exports=n():"function"==typeof define&&define.amd?define(n):(t=t||self).__SVGATOR_PLAYER__=n()}(this,(function(){"use strict";function t(n){return(t="function"==typeof Symbol&&"symbol"==typeof Symbol.iterator?function(t){return typeof t}:function(t){return t&&"function"==typeof Symbol&&t.constructor===Symbol&&t!==Symbol.prototype?"symbol":typeof t})(n)}function n(t,n){if(!(t instanceof n))throw new TypeError("Cannot call a class as a function")}function r(t,n){for(var r=0;r<n.length;r++){var e=n[r];e.enumerable=e.enumerable||!1,e.configurable=!0,"value"in e&&(e.writable=!0),Object.defineProperty(t,e.key,e)}}function e(t,n,e){return n&&r(t.prototype,n),e&&r(t,e),t}var i=1e-5,u=Math.abs;function o(t){return t}function a(t,n,r){var e=1-r;return 3*r*e*(t*e+n*r)+r*r*r}function l(){var t=arguments.length>0&&void 0!==arguments[0]?arguments[0]:0,n=arguments.length>1&&void 0!==arguments[1]?arguments[1]:0,r=arguments.length>2&&void 0!==arguments[2]?arguments[2]:1,e=arguments.length>3&&void 0!==arguments[3]?arguments[3]:1;return t<0||t>1||r<0||r>1?null:u(t-n)<=i&&u(r-e)<=i?o:function(o){if(o<=0)return t>0?o*n/t:0===n&&r>0?o*e/r:0;if(o>=1)return r<1?1+(o-1)*(e-1)/(r-1):1===r&&t<1?1+(o-1)*(n-1)/(t-1):1;for(var l,f=0,s=1;f<s;){var c=a(t,r,l=(f+s)/2);if(u(o-c)<i)break;c<o?f=l:s=l}return a(n,e,l)}}function f(){return 1}function s(t){return 1===t?1:0}function c(){var t=arguments.length>0&&void 0!==arguments[0]?arguments[0]:1,n=arguments.length>1&&void 0!==arguments[1]?arguments[1]:0;if(1===t){if(0===n)return s;if(1===n)return f}var r=1/t;return function(t){return t>=1?1:(t+=n*r)-t%r}}function v(t){var n=arguments.length>1&&void 0!==arguments[1]?arguments[1]:2;if(Number.isInteger(t))return t;var r=Math.pow(10,n);return Math.round(t*r)/r}var h=Math.PI/180;function y(t,n,r){return t>=.5?r:n}function d(t,n,r){return 0===t||n===r?n:t*(r-n)+n}function g(t,n,r){var e=d(t,n,r);return e<=0?0:e}function m(t,n,r){return 0===t?n:1===t?r:{x:d(t,n.x,r.x),y:d(t,n.y,r.y)}}function p(t,n,r){return 0===t?n:1===t?r:{x:g(t,n.x,r.x),y:g(t,n.y,r.y)}}function b(t,n,r){var e=function(t,n,r){return Math.round(d(t,n,r))}(t,n,r);return e<=0?0:e>=255?255:e}function w(t,n,r){return 0===t?n:1===t?r:{r:b(t,n.r,r.r),g:b(t,n.g,r.g),b:b(t,n.b,r.b),a:d(t,null==n.a?1:n.a,null==r.a?1:r.a)}}function A(t,n,r){if(0===t)return n;if(1===t)return r;var e=n.length;if(e!==r.length)return y(t,n,r);for(var i=[],u=0;u<e;u++)i.push(w(t,n[u],r[u]));return i}function x(t,n,r){var e=n.length;if(e!==r.length)return y(t,n,r);for(var i=new Array(e),u=0;u<e;u++)i[u]=d(t,n[u],r[u]);return i}function k(t,n){for(var r=[],e=0;e<t;e++)r.push(n);return r}function S(t,n){if(--n<=0)return t;var r=(t=Object.assign([],t)).length;do{for(var e=0;e<r;e++)t.push(t[e])}while(--n>0);return t}var _=6,M=/\.0+$/g;function I(t){return Number.isInteger(t)?t+"":t.toFixed(_).replace(M,"")}function E(t){var n=arguments.length>1&&void 0!==arguments[1]?arguments[1]:" ";return t&&t.length?t.map(I).join(n):""}function F(t){return I(t.x)+","+I(t.y)}function B(t){return t?null==t.a||t.a>=1?"rgb("+t.r+","+t.g+","+t.b+")":"rgba("+t.r+","+t.g+","+t.b+","+t.a+")":"transparent"}var j={f:null,i:p,u:function(t,n){return function(r){var e=n(r);t.setAttribute("rx",I(e.x)),t.setAttribute("ry",I(e.y))}}},q={f:null,i:function(t,n,r){return 0===t?n:1===t?r:{width:g(t,n.width,r.width),height:g(t,n.height,r.height)}},u:function(t,n){return function(r){var e=n(r);t.setAttribute("width",I(e.width)),t.setAttribute("height",I(e.height))}}},P=Math.sin,O=Math.cos,z=Math.acos,L=Math.asin,C=Math.tan,R=Math.atan2,T=Math.PI/180,V=180/Math.PI,D=Math.sqrt,N=function(){function t(){var r=arguments.length>0&&void 0!==arguments[0]?arguments[0]:1,e=arguments.length>1&&void 0!==arguments[1]?arguments[1]:0,i=arguments.length>2&&void 0!==arguments[2]?arguments[2]:0,u=arguments.length>3&&void 0!==arguments[3]?arguments[3]:1,o=arguments.length>4&&void 0!==arguments[4]?arguments[4]:0,a=arguments.length>5&&void 0!==arguments[5]?arguments[5]:0;n(this,t),this.m=[r,e,i,u,o,a],this.i=null,this.w=null,this.s=null}return e(t,[{key:"point",value:function(t,n){var r=this.m;return{x:r[0]*t+r[2]*n+r[4],y:r[1]*t+r[3]*n+r[5]}}},{key:"translateSelf",value:function(){var t=arguments.length>0&&void 0!==arguments[0]?arguments[0]:0,n=arguments.length>1&&void 0!==arguments[1]?arguments[1]:0;if(!t&&!n)return this;var r=this.m;return r[4]+=r[0]*t+r[2]*n,r[5]+=r[1]*t+r[3]*n,this.w=this.s=this.i=null,this}},{key:"rotateSelf",value:function(){var t=arguments.length>0&&void 0!==arguments[0]?arguments[0]:0;if(t%=360){var n=P(t*=T),r=O(t),e=this.m,i=e[0],u=e[1];e[0]=i*r+e[2]*n,e[1]=u*r+e[3]*n,e[2]=e[2]*r-i*n,e[3]=e[3]*r-u*n,this.w=this.s=this.i=null}return this}},{key:"scaleSelf",value:function(){var t=arguments.length>0&&void 0!==arguments[0]?arguments[0]:1,n=arguments.length>1&&void 0!==arguments[1]?arguments[1]:1;if(1!==t||1!==n){var r=this.m;r[0]*=t,r[1]*=t,r[2]*=n,r[3]*=n,this.w=this.s=this.i=null}return this}},{key:"skewSelf",value:function(t,n){if(n%=360,(t%=360)||n){var r=this.m,e=r[0],i=r[1],u=r[2],o=r[3];t&&(t=C(t*T),r[2]+=e*t,r[3]+=i*t),n&&(n=C(n*T),r[0]+=u*n,r[1]+=o*n),this.w=this.s=this.i=null}return this}},{key:"resetSelf",value:function(){var t=arguments.length>0&&void 0!==arguments[0]?arguments[0]:1,n=arguments.length>1&&void 0!==arguments[1]?arguments[1]:0,r=arguments.length>2&&void 0!==arguments[2]?arguments[2]:0,e=arguments.length>3&&void 0!==arguments[3]?arguments[3]:1,i=arguments.length>4&&void 0!==arguments[4]?arguments[4]:0,u=arguments.length>5&&void 0!==arguments[5]?arguments[5]:0,o=this.m;return o[0]=t,o[1]=n,o[2]=r,o[3]=e,o[4]=i,o[5]=u,this.w=this.s=this.i=null,this}},{key:"recomposeSelf",value:function(){var t=arguments.length>0&&void 0!==arguments[0]?arguments[0]:null,n=arguments.length>1&&void 0!==arguments[1]?arguments[1]:null,r=arguments.length>2&&void 0!==arguments[2]?arguments[2]:null,e=arguments.length>3&&void 0!==arguments[3]?arguments[3]:null,i=arguments.length>4&&void 0!==arguments[4]?arguments[4]:null;return this.isIdentity||this.resetSelf(),t&&(t.x||t.y)&&this.translateSelf(t.x,t.y),n&&this.rotateSelf(n),r&&(r.x&&this.skewSelf(r.x,0),r.y&&this.skewSelf(0,r.y)),!e||1===e.x&&1===e.y||this.scaleSelf(e.x,e.y),i&&(i.x||i.y)&&this.translateSelf(i.x,i.y),this}},{key:"decompose",value:function(){var t=arguments.length>0&&void 0!==arguments[0]?arguments[0]:0,n=arguments.length>1&&void 0!==arguments[1]?arguments[1]:0,r=this.m,e=r[0]*r[0]+r[1]*r[1],i=[[r[0],r[1]],[r[2],r[3]]],u=D(e);if(0===u)return{origin:{x:r[4],y:r[5]},translate:{x:t,y:n},scale:{x:0,y:0},skew:{x:0,y:0},rotate:0};i[0][0]/=u,i[0][1]/=u;var o=r[0]*r[3]-r[1]*r[2]<0;o&&(u=-u);var a=i[0][0]*i[1][0]+i[0][1]*i[1][1];i[1][0]-=i[0][0]*a,i[1][1]-=i[0][1]*a;var l=D(i[1][0]*i[1][0]+i[1][1]*i[1][1]);if(0===l)return{origin:{x:r[4],y:r[5]},translate:{x:t,y:n},scale:{x:u,y:0},skew:{x:0,y:0},rotate:0};i[1][0]/=l,i[1][1]/=l,a/=l;var f=0;return i[1][1]<0?(f=z(i[1][1])*V,i[0][1]<0&&(f=360-f)):f=L(i[0][1])*V,o&&(f=-f),a=R(a,D(i[0][0]*i[0][0]+i[0][1]*i[0][1]))*V,{origin:{x:r[4],y:r[5]},translate:{x:t,y:n},scale:{x:u,y:l},skew:{x:a,y:0},rotate:f}}},{key:"toString",value:function(){return null===this.s&&(this.s="matrix("+this.m.map($).join(" ")+")"),this.s}},{key:"determinant",get:function(){var t=this.m;return t[0]*t[3]-t[1]*t[2]}},{key:"isIdentity",get:function(){if(null===this.i){var t=this.m;this.i=1===t[0]&&0===t[1]&&0===t[2]&&1===t[3]&&0===t[4]&&0===t[5]}return this.i}}]),t}(),G=/\.0+$/;function $(t){return Number.isInteger(t)?t:t.toFixed(14).replace(G,"")}Object.freeze({M:2,L:2,Z:0,H:1,V:1,C:6,Q:4,T:2,S:4,A:7});function H(t,n,r){return t+(n-t)*r}function Q(t,n,r){var e=arguments.length>3&&void 0!==arguments[3]&&arguments[3],i={x:H(t.x,n.x,r),y:H(t.y,n.y,r)};return e&&(i.a=function(t,n){return Math.atan2(n.y-t.y,n.x-t.x)}(t,n)),i}function U(t,n,r,e){var i=1-e;return i*i*t+2*i*e*n+e*e*r}function Y(t,n,r,e){return 2*(1-e)*(n-t)+2*e*(r-n)}function Z(t,n,r,e){var i=arguments.length>4&&void 0!==arguments[4]&&arguments[4],u={x:U(t.x,n.x,r.x,e),y:U(t.y,n.y,r.y,e)};return i&&(u.a=function(t,n,r,e){return Math.atan2(Y(t.y,n.y,r.y,e),Y(t.x,n.x,r.x,e))}(t,n,r,e)),u}function J(t,n,r,e,i){var u=i*i;return i*u*(e-t+3*(n-r))+3*u*(t+r-2*n)+3*i*(n-t)+t}function K(t,n,r,e,i){var u=1-i;return 3*(u*u*(n-t)+2*u*i*(r-n)+i*i*(e-r))}function W(t,n,r,e,i){var u=arguments.length>5&&void 0!==arguments[5]&&arguments[5],o={x:J(t.x,n.x,r.x,e.x,i),y:J(t.y,n.y,r.y,e.y,i)};return u&&(o.a=function(t,n,r,e,i){return Math.atan2(K(t.y,n.y,r.y,e.y,i),K(t.x,n.x,r.x,e.x,i))}(t,n,r,e,i)),o}function X(t,n,r){var e,i=arguments.length>3&&void 0!==arguments[3]&&arguments[3];if(nt(n)){if(null!=(e=r).start&&!nt(e))return Z(n,r.start,r,t,i)}else if(nt(r)){if(n.end)return Z(n,n.end,r,t,i)}else{if(n.end)return r.start?W(n,n.end,r.start,r,t,i):Z(n,n.end,r,t,i);if(r.start)return Z(n,r.start,r,t,i)}return Q(n,r,t,i)}function tt(t,n,r){var e=X(t,n,r,!0);return e.a=function(t){return arguments.length>1&&void 0!==arguments[1]&&arguments[1]?t+Math.PI:t}(e.a)/h,e}function nt(t){return!t.type||"corner"===t.type}var rt=new N;var et={f:function(t){return t?t.join(" "):""},i:function(n,r,e){if(0===n)return r;if(1===n)return e;var i=r.length;if(i!==e.length)return y(n,r,e);for(var u,o=new Array(i),a=0;a<i;a++){if((u=t(r[a]))!==t(e[a]))return y(n,r,e);if("number"===u)o[a]=d(n,r[a],e[a]);else{if(r[a]!==e[a])return y(n,r,e);o[a]=r[a]}}return o}},it={f:null,i:x,u:function(t,n){return function(r){var e=n(r);t.setAttribute("x1",I(e[0])),t.setAttribute("y1",I(e[1])),t.setAttribute("x2",I(e[2])),t.setAttribute("y2",I(e[3]))}}},ut={f:I,i:d},ot={f:I,i:function(t,n,r){var e=d(t,n,r);return e<=0?0:e>=1?1:e}},at={f:E,i:function(t,n,r){var e,i,u,o=n.length,a=r.length;if(o!==a)if(0===o)n=k(o=a,0);else if(0===a)a=o,r=k(o,0);else{var l=(u=(e=o)*(i=a)/function(t,n){for(var r;n;)r=n,n=t%n,t=r;return t||1}(e,i))<0?-u:u;n=S(n,Math.floor(l/o)),r=S(r,Math.floor(l/a)),o=a=l}for(var f=[],s=0;s<o;s++)f.push(v(g(t,n[s],r[s]),6));return f}};function lt(t,n,r,e,i,u,o,a){return n=function(t,n,r){for(var e,i,u,o=t.length-1,a={},l=0;l<=o;l++)(e=t[l]).e&&(e.e=n(e.e)),e.v&&"g"===(i=e.v).t&&i.r&&(u=r.getElementById(i.r))&&(a[i.r]=u.querySelectorAll("stop"));return a}(t,e,a),function(e){var i,u=r(e,t,ft);return u?"c"===u.t?B(u.v):"g"===u.t?(n[u.r]&&function(t,n){for(var r=0,e=t.length;r<e;r++)t[r].setAttribute("stop-color",B(n[r]))}(n[u.r],u.v),(i=u.r)?"url(#"+i+")":"none"):"none":"none"}}function ft(t,n,r){if(0===t)return n;if(1===t)return r;if(n&&r){var e=n.t;if(e===r.t)switch(n.t){case"c":return{t:e,v:w(t,n.v,r.v)};case"g":if(n.r===r.r)return{t:e,v:A(t,n.v,r.v),r:n.r}}}return y(t,n,r)}var st={blur:p,brightness:g,contrast:g,"drop-shadow":function(t,n,r){return 0===t?n:1===t?r:{blur:p(t,n.blur,r.blur),offset:m(t,n.offset,r.offset),color:w(t,n.color,r.color)}},grayscale:g,"hue-rotate":d,invert:g,opacity:g,saturate:g,sepia:g};function ct(t,n,r){if(0===t)return n;if(1===t)return r;var e=n.length;if(e!==r.length)return y(t,n,r);for(var i,u=[],o=0;o<e;o++){if(n[o].type!==r[o].type)return n;if(!(i=st[n[o].type]))return y(t,n,r);u.push({type:n.type,value:i(t,n[o].value,r[o].value)})}return u}var vt={blur:function(t){return t?function(n){t.setAttribute("stdDeviation",F(n))}:null},brightness:function(t,n,r){return(t=yt(r,n))?function(n){n=I(n),t.map((function(t){return t.setAttribute("slope",n)}))}:null},contrast:function(t,n,r){return(t=yt(r,n))?function(n){var r=I((1-n)/2);n=I(n),t.map((function(t){t.setAttribute("slope",n),t.setAttribute("intercept",r)}))}:null},"drop-shadow":function(t,n,r){var e=r.getElementById(n+"-blur");if(!e)return null;var i=r.getElementById(n+"-offset");if(!i)return null;var u=r.getElementById(n+"-flood");return u?function(t){e.setAttribute("stdDeviation",F(t.blur)),i.setAttribute("dx",I(t.offset.x)),i.setAttribute("dy",I(t.offset.y)),u.setAttribute("flood-color",B(t.color))}:null},grayscale:function(t){return t?function(n){t.setAttribute("values",E(function(t){return[.2126+.7874*(t=1-t),.7152-.7152*t,.0722-.0722*t,0,0,.2126-.2126*t,.7152+.2848*t,.0722-.0722*t,0,0,.2126-.2126*t,.7152-.7152*t,.0722+.9278*t,0,0,0,0,0,1,0]}(n)))}:null},"hue-rotate":function(t){return t?function(n){return t.setAttribute("values",I(n))}:null},invert:function(t,n,r){return(t=yt(r,n))?function(n){n=I(n)+" "+I(1-n),t.map((function(t){return t.setAttribute("tableValues",n)}))}:null},opacity:function(t,n,r){return(t=r.getElementById(n+"-A"))?function(n){return t.setAttribute("tableValues","0 "+I(n))}:null},saturate:function(t){return t?function(n){return t.setAttribute("values",I(n))}:null},sepia:function(t){return t?function(n){return t.setAttribute("values",E(function(t){return[.393+.607*(t=1-t),.769-.769*t,.189-.189*t,0,0,.349-.349*t,.686+.314*t,.168-.168*t,0,0,.272-.272*t,.534-.534*t,.131+.869*t,0,0,0,0,0,1,0]}(n)))}:null}};var ht=["R","G","B"];function yt(t,n){var r=ht.map((function(r){return t.getElementById(n+"-"+r)||null}));return-1!==r.indexOf(null)?null:r}var dt={fill:lt,"fill-opacity":ot,stroke:lt,"stroke-opacity":ot,"stroke-width":ut,"stroke-dashoffset":{f:I,i:d},"stroke-dasharray":at,opacity:ot,transform:function(n,r,e,i){if(!(n=function(n,r){if(!n||"object"!==t(n))return null;var e=!1;for(var i in n)n.hasOwnProperty(i)&&(n[i]&&n[i].length?(n[i].forEach((function(t){t.e&&(t.e=r(t.e))})),e=!0):delete n[i]);return e?n:null}(n,i)))return null;var u=function(t,i,u){var o=arguments.length>3&&void 0!==arguments[3]?arguments[3]:null;return n[t]?e(i,n[t],u):r&&r[t]?r[t]:o};return r&&r.a&&n.o?function(t){var r=e(t,n.o,tt);return rt.recomposeSelf(r,u("r",t,d,0)+r.a,u("k",t,m),u("s",t,m),u("t",t,m)).toString()}:function(t){return rt.recomposeSelf(u("o",t,X,null),u("r",t,d,0),u("k",t,m),u("s",t,m),u("t",t,m)).toString()}},"#filter":function(t,n,r,e,i,u,o,a){if(!n.items||!t||!t.length)return null;var l=function(t,n){var r=(t=t.map((function(t){return t&&vt[t[0]]?(n.getElementById(t[1]),vt[t[0]](n.getElementById(t[1]),t[1],n)):null}))).length;return function(n){for(var e=0;e<r;e++)t[e]&&t[e](n[e].value)}}(n.items,a);return l?(t=function(t,n){return t.map((function(t){return t.e=n(t.e),t}))}(t,e),function(n){l(r(n,t,ct))}):null},"#line":it,points:{f:E,i:x},d:et,r:ut,"#size":q,"#radius":j,_:function(t,n){if(Array.isArray(t))for(var r=0;r<t.length;r++)this[t[r]]=n;else this[t]=n}},gt=function(){function t(r){n(this,t),this.list=r,this.length=r.length}return e(t,[{key:"setAttribute",value:function(t,n){for(var r=this.list,e=0;e<this.length;e++)r[e].setAttribute(t,n)}},{key:"removeAttribute",value:function(t){for(var n=this.list,r=0;r<this.length;r++)n[r].removeAttribute(t)}},{key:"style",value:function(t,n){for(var r=this.list,e=0;e<this.length;e++)r[e].style[t]=n}}]),t}(),mt=/-./g,pt=function(t,n){return n.toUpperCase()};function bt(t){return"function"==typeof t?t:y}function wt(t){return t?"function"==typeof t?t:Array.isArray(t)?function(t){var n=arguments.length>1&&void 0!==arguments[1]?arguments[1]:o;if(!Array.isArray(t))return n;switch(t.length){case 1:return c(t[0])||n;case 2:return c(t[0],t[1])||n;case 4:return l(t[0],t[1],t[2],t[3])||n}return n}(t,null):function(t,n){var r=arguments.length>2&&void 0!==arguments[2]?arguments[2]:o;switch(t){case"linear":return o;case"steps":return c(n.steps||1,n.jump||0)||r;case"bezier":case"cubic-bezier":return l(n.x1||0,n.y1||0,n.x2||0,n.y2||0)||r}return r}(t.type,t.value,null):null}function At(t,n,r){var e=arguments.length>3&&void 0!==arguments[3]&&arguments[3],i=n.length-1;if(t<=n[0].t)return e?[0,0,n[0].v]:n[0].v;if(t>=n[i].t)return e?[i,1,n[i].v]:n[i].v;var u,o=n[0],a=null;for(u=1;u<=i;u++){if(!(t>n[u].t)){a=n[u];break}o=n[u]}return null==a?e?[i,1,n[i].v]:n[i].v:o.t===a.t?e?[u,1,a.v]:a.v:(t=(t-o.t)/(a.t-o.t),o.e&&(t=o.e(t)),e?[u,t,r(t,o.v,a.v)]:r(t,o.v,a.v))}function xt(t,n){var r=arguments.length>2&&void 0!==arguments[2]?arguments[2]:null;return t&&t.length?"function"!=typeof n?null:("function"!=typeof r&&(r=null),function(e){var i=At(e,t,n);return null!=i&&r&&(i=r(i)),i}):null}function kt(t,n){return t.t-n.t}function St(n,r,e,i,u){var o,a="@"===e[0],l="#"===e[0],f=dt[e],s=y;switch(a?(o=e.substr(1),e=o.replace(mt,pt)):l&&(e=e.substr(1)),t(f)){case"function":if(s=f(i,u,At,wt,e,a,r,n),l)return s;break;case"string":s=xt(i,bt(f));break;case"object":if((s=xt(i,bt(f.i),f.f))&&"function"==typeof f.u)return f.u(r,s,e,a,n)}return s?function(t,n,r){if(arguments.length>3&&void 0!==arguments[3]&&arguments[3])return t instanceof gt?function(e){return t.style(n,r(e))}:function(e){return t.style[n]=r(e)};if(Array.isArray(n)){var e=n.length;return function(i){var u=r(i);if(null==u)for(var o=0;o<e;o++)t[o].removeAttribute(n);else for(var a=0;a<e;a++)t[a].setAttribute(n,u)}}return function(e){var i=r(e);null==i?t.removeAttribute(n):t.setAttribute(n,i)}}(r,e,s,a):null}function _t(n,r,e,i){if(!i||"object"!==t(i))return null;var u=null,o=null;return Array.isArray(i)?o=function(t){if(!t||!t.length)return null;for(var n=0;n<t.length;n++)t[n].e&&(t[n].e=wt(t[n].e));return t.sort(kt)}(i):(o=i.keys,u=i.data||null),o?St(n,r,e,o,u):null}function Mt(t,n,r){if(!r)return null;var e=[];for(var i in r)if(r.hasOwnProperty(i)){var u=_t(t,n,i,r[i]);u&&e.push(u)}return e.length?e:null}function It(t,n){if(!n.duration||n.duration<0)return null;var r=function(t,n){if(!n)return null;var r=[];if(Array.isArray(n))for(var e=n.length,i=0;i<e;i++){var u=n[i];if(2===u.length){var o=null;if("string"==typeof u[0])o=t.getElementById(u[0]);else if(Array.isArray(u[0])){o=[];for(var a=0;a<u[0].length;a++)if("string"==typeof u[0][a]){var l=t.getElementById(u[0][a]);l&&o.push(l)}o=o.length?1===o.length?o[0]:new gt(o):null}if(o){var f=Mt(t,o,u[1]);f&&(r=r.concat(f))}}}else for(var s in n)if(n.hasOwnProperty(s)){var c=t.getElementById(s);if(c){var v=Mt(t,c,n[s]);v&&(r=r.concat(v))}}return r.length?r:null}(t,n.elements);return r?function(t,n){var r=arguments.length>2&&void 0!==arguments[2]?arguments[2]:1/0,e=arguments.length>3&&void 0!==arguments[3]?arguments[3]:1,i=arguments.length>4&&void 0!==arguments[4]&&arguments[4],u=arguments.length>5&&void 0!==arguments[5]?arguments[5]:1,o=t.length,a=e>0?n:0;i&&r%2==0&&(a=n-a);var l=null;return function(f,s){var c=f%n,v=1+(f-c)/n;s*=e,i&&v%2==0&&(s=-s);var h=!1;if(v>r)c=a,h=!0,-1===u&&(c=e>0?0:n);else if(s<0&&(c=n-c),c===l)return!1;l=c;for(var y=0;y<o;y++)t[y](c);return h}}(r,n.duration,n.iterations||1/0,n.direction||1,!!n.alternate,n.fill||1):null}var Et=function(){function t(r){var e=arguments.length>1&&void 0!==arguments[1]?arguments[1]:{};n(this,t),this._id=0,this._running=!1,this._animations=r,this.direction=e.direction||1,this.speed=e.speed||1,this.fps=e.fps||100,this.offset=e.offset||0}return e(t,[{key:"_start",value:function(){var t=this,n=arguments.length>0&&void 0!==arguments[0]?arguments[0]:0,r=-1/0,e=null,i={},u=function u(o){t._running=!0,null==e&&(e=o);var a=Math.round((o-e+n)*t.speed),l=t.fps?1e3/t.fps:0;if(a>r+l){t.offset=a,r=a;for(var f=t._animations,s=f.length,c=0"}})]]>
,v=0;v<s;v++)i[v]?c++:(i[v]=f[v](a,t.direction),i[v]&&c++);if(c===s)return void t._stop()}t._id=window.requestAnimationFrame(u)};this._id=window.requestAnimationFrame(u)}},{key:"_stop",value:function(){this._id&&window.cancelAnimationFrame(this._id),this._running=!1}},{key:"play",value:function(){this._running||this._start(this.offset)}},{key:"stop",value:function(){this._stop(),this.offset=0;var t=this.direction,n=this._animations;requestAnimationFrame((function(){for(var r=0;r<n.length;r++)n[r](0,t)}))}},{key:"restart",value:function(){this._stop(),this.offset=0,this._start()}},{key:"pause",value:function(){this._stop()}},{key:"reverse",value:function(){this.direction=-this.direction}}],[{key:"build",value:function(n){if(!(n=function(t){if(!t||!t.root||!Array.isArray(t.animations))return null;var n=window.document.getElementById(t.root);if(!n)return null;var r=t.animations.map((function(t){return It(n,t)})).filter((function(t){return!!t}));return r.length?{element:n,animations:r,options:t.options||void 0}:null}(n)))return null;var r=n.element,e=n.options||{},i=new t(n.animations,n.options);return function(t,n,r){var e=arguments.length>3&&void 0!==arguments[3]?arguments[3]:null;if("click"===r){return void n.addEventListener("click",(function r(){n.removeEventListener("click",r),t.play()}))}if("hover"===r)return n.addEventListener("mouseenter",(function(){return t.play()})),void n.addEventListener("mouseleave","freeze"===e?function(){return t.pause()}:function(){return t.stop()});t.play()}(i,r,e.start,e.hover),i}}]),t}();return function(){for(var t=0,n=["ms","moz","webkit","o"],r=0;r<n.length&&!window.requestAnimationFrame;++r)window.requestAnimationFrame=window[n[r]+"RequestAnimationFrame"],window.cancelAnimationFrame=window[n[r]+"CancelAnimationFrame"]||window[n[r]+"CancelRequestAnimationFrame"];window.requestAnimationFrame||(window.requestAnimationFrame=function(n){var r=Date.now(),e=Math.max(0,16-(r-t)),i=window.setTimeout((function(){n(r+e)}),e);return t=r+e,i},window.cancelAnimationFrame=window.clearTimeout)}(),Et}));
__SVGATOR_PLAYER__.build({"root":"el12047byxmo1","animations":[{"duration":3000,"direction":1,"iterations":1,"fill":1,"alternate":false,"elements":{"el12047byxmo4":{"transform":{"keys":{"o":[{"t":0,"v":{"x":0,"y":-1,"type":"corner"}},{"t":300,"v":{"x":0,"y":-1,"type":"corner"}},{"t":500,"v":{"x":0,"y":-1,"type":"corner"}},{"t":700,"v":{"x":0,"y":-1,"type":"corner"}},{"t":900,"v":{"x":0,"y":-1,"type":"corner"}}]}}},"el12047byxmo33":{"transform":{"data":{"o":{"x":-107.01492682499429,"y":486.3025225250001,"type":"corner"}},"keys":{"r":[{"t":0,"v":-25.659123596142006},{"t":300,"v":-3.552176215184329},{"t":500,"v":-3.552176215184329},{"t":700,"v":-26.137994474254324},{"t":900,"v":-26.137994474254324}]}}},"el12047byxmo62":{"transform":{"data":{"o":{"x":342.1399371050019,"y":-391.4491592950032,"type":"corner"}},"keys":{"r":[{"t":0,"v":29.3591107466302},{"t":300,"v":12.484335545783251},{"t":500,"v":28.637929521590536},{"t":700,"v":28.637929521590536},{"t":900,"v":28.637929521590536}]}}}}}],"options":{"start":"hover","hover":"freeze</script>
</svg>